<?xml version="1.0" encoding="UTF-8" standalone="no"?>
<!-- Created with Inkscape (http://www.inkscape.org/) -->

<svg
   width="192"
   height="256"
   viewBox="0 0 50.799999 67.733333"
   version="1.1"
   id="svg1"
   inkscape:version="1.4.2 (f4327f4, 2025-05-13)"
   sodipodi:docname="绘图.svg"
   xmlns:inkscape="http://www.inkscape.org/namespaces/inkscape"
   xmlns:sodipodi="http://sodipodi.sourceforge.net/DTD/sodipodi-0.dtd"
   xmlns:xlink="http://www.w3.org/1999/xlink"
   xmlns="http://www.w3.org/2000/svg"
   xmlns:svg="http://www.w3.org/2000/svg">
  <sodipodi:namedview
     id="namedview1"
     pagecolor="#ffffff"
     bordercolor="#000000"
     borderopacity="0.25"
     inkscape:showpageshadow="2"
     inkscape:pageopacity="0.0"
     inkscape:pagecheckerboard="0"
     inkscape:deskcolor="#d1d1d1"
     inkscape:document-units="mm"
     inkscape:zoom="2.0044192"
     inkscape:cx="475.44945"
     inkscape:cy="135.45071"
     inkscape:window-width="2560"
     inkscape:window-height="1360"
     inkscape:window-x="-11"
     inkscape:window-y="-11"
     inkscape:window-maximized="1"
     inkscape:current-layer="layer1" />
  <defs
     id="defs1">
    <radialGradient
       id="Gradient_1"
       gradientUnits="userSpaceOnUse"
       cx="0"
       cy="0"
       r="13.5875"
       fx="0"
       fy="0"
       spreadMethod="pad">
      <stop
         offset="0%"
         stop-color="#000000"
         stop-opacity="0.30196078431372547"
         id="stop1" />
      <stop
         offset="100%"
         stop-color="#000000"
         stop-opacity="0"
         id="stop2" />
    </radialGradient>
    <radialGradient
       inkscape:collect="always"
       xlink:href="#Gradient_1"
       id="radialGradient26"
       gradientUnits="userSpaceOnUse"
       cx="0"
       cy="0"
       fx="0"
       fy="0"
       r="13.5875"
       spreadMethod="pad" />
    <radialGradient
       inkscape:collect="always"
       xlink:href="#Gradient_1"
       id="radialGradient136"
       gradientUnits="userSpaceOnUse"
       cx="0"
       cy="0"
       fx="0"
       fy="0"
       r="13.5875"
       spreadMethod="pad" />
  </defs>
  <g
     inkscape:label="图层 1"
     inkscape:groupmode="layer"
     id="layer1">
    <g
       transform="matrix(0.5868781,0,0,0.61820927,28.731218,51.186846)"
       id="g103">
      <g
         id="g102">
        <g
           id="use101">
          <path
             fill="#4c4eaa"
             stroke="none"
             d="M 5.3,14 5.45,9 H -6.45 L -6.6,14 H 5.25 Z"
             id="path42" />
          <path
             fill="#ffffff"
             stroke="none"
             d="M 11,20 5.25,14 H -6.6 l -0.25,6 z"
             id="path43" />
          <path
             fill="#eea160"
             stroke="none"
             d="M 10.9,23 11,20 H -6.85 L -7,23 Z"
             id="path44" />
          <path
             fill="#676ac6"
             stroke="none"
             d="M 5.9,-0.2 Q 5.9,-2.6 4,-4.3 2.15,-6 -0.55,-6 -3.2,-6 -5.1,-4.3 -7,-2.6 -7,-0.2 L -6.45,9 h 11.9 z"
             id="path45" />
        </g>
      </g>
    </g>
    <g
       transform="matrix(-0.5868781,0,0,0.61820927,19.34115,51.186846)"
       id="g105">
      <g
         id="g104">
        <g
           id="use103">
          <path
             fill="#4c4eaa"
             stroke="none"
             d="M 5.3,14 5.45,9 H -6.45 L -6.6,14 H 5.25 Z"
             id="path46" />
          <path
             fill="#ffffff"
             stroke="none"
             d="M 11,20 5.25,14 H -6.6 l -0.25,6 z"
             id="path47" />
          <path
             fill="#eea160"
             stroke="none"
             d="M 10.9,23 11,20 H -6.85 L -7,23 Z"
             id="path48" />
          <path
             fill="#676ac6"
             stroke="none"
             d="M 5.9,-0.2 Q 5.9,-2.6 4,-4.3 2.15,-6 -0.55,-6 -3.2,-6 -5.1,-4.3 -7,-2.6 -7,-0.2 L -6.45,9 h 11.9 z"
             id="path49" />
        </g>
      </g>
    </g>
    <g
       transform="matrix(0.5868781,0,0,0.61820927,34.453262,39.34814)"
       id="g108">
      <g
         id="g106">
        <g
           id="use105">
          <path
             fill="#bf7958"
             stroke="none"
             d="M 13.15,10.6 Q 11.9,7.15 9.95,3.9 4.35,5.25 -0.3,10.1 q 0.85,1.35 1.5,2.75 1.55,3.2 1.95,6.9 0.25,2.4 2.15,3.95 1.95,1.5 4.4,1.3 2.4,-0.3 3.95,-2.25 1.55,-1.85 1.3,-4.35 -0.35,-2.9 -1.1,-5.55 -0.3,-1.15 -0.7,-2.25 z"
             id="path50" />
          <path
             fill="#e7f3fc"
             stroke="none"
             d="m -0.2,-5 q -2.45,0.05 -4.2,1.8 -1.7,1.8 -1.6,4.2 0,2.45 1.7,4.15 2.4,2.3 4,4.95 Q 4.35,5.25 9.95,3.9 7.5,0.05 4,-3.35 2.25,-4.95 -0.2,-5 Z"
             id="path51" />
        </g>
      </g>
      <g
         id="g107">
        <g
           id="use106">
          <path
             fill="#bfd4e5"
             stroke="none"
             d="m 12.4,4.8 -2.05,-3.6 -12.9,7.5 2,3.55 z"
             id="path54" />
        </g>
      </g>
    </g>
    <g
       transform="matrix(-0.5868781,0,0,0.61820927,13.619106,39.34814)"
       id="g111">
      <g
         id="g109">
        <g
           id="use108">
          <path
             fill="#bf7958"
             stroke="none"
             d="M 13.15,10.6 Q 11.9,7.15 9.95,3.9 4.35,5.25 -0.3,10.1 q 0.85,1.35 1.5,2.75 1.55,3.2 1.95,6.9 0.25,2.4 2.15,3.95 1.95,1.5 4.4,1.3 2.4,-0.3 3.95,-2.25 1.55,-1.85 1.3,-4.35 -0.35,-2.9 -1.1,-5.55 -0.3,-1.15 -0.7,-2.25 z"
             id="path52" />
          <path
             fill="#e7f3fc"
             stroke="none"
             d="m -0.2,-5 q -2.45,0.05 -4.2,1.8 -1.7,1.8 -1.6,4.2 0,2.45 1.7,4.15 2.4,2.3 4,4.95 Q 4.35,5.25 9.95,3.9 7.5,0.05 4,-3.35 2.25,-4.95 -0.2,-5 Z"
             id="path53" />
        </g>
      </g>
      <g
         id="g110">
        <g
           id="use109">
          <path
             fill="#bfd4e5"
             stroke="none"
             d="m 12.4,4.8 -2.05,-3.6 -12.9,7.5 2,3.55 z"
             id="path55" />
        </g>
      </g>
    </g>
    <g
       transform="matrix(0.5868781,0,0,0.61820927,24.03618,49.39404)"
       id="g117">
      <g
         id="g112">
        <g
           id="use111">
          <path
             fill="#bfd4e5"
             stroke="none"
             d="M 14.6,2.8 V -2.15 H -15.45 V 2.8 Z"
             id="path28" />
          <path
             fill="#676ac6"
             stroke="none"
             d="m 13.1,8 q 1.4,-1.9 1.5,-5.2 h -30.05 q 0.1,3.3 1.5,5.2 z"
             id="path32" />
          <path
             fill="#e7f3fc"
             stroke="none"
             d="m 17.8,-15.8 q 1.05,-5.4 -2.6,-5.2 h -31.3 q -3.65,-0.2 -2.6,5.2 l 3.25,13.65 H 14.6 Z"
             id="path33" />
        </g>
      </g>
      <g
         id="g113">
        <g
           id="use112">
          <path
             fill="#a8603f"
             stroke="none"
             d="M 7.6,-28.45 Q 4.45,-31 0.05,-31 q -4.4,0 -7.55,2.55 -3.1,2.7 -3.1,6.45 0,0.25 0.05,0.5 0.15,3.4 3.05,5.8 3.15,2.7 7.55,2.7 4.4,0 7.55,-2.7 2.9,-2.4 3.05,-5.8 0.05,-0.25 0.05,-0.5 0,-3.75 -3.1,-6.45 z"
             id="path27" />
        </g>
      </g>
      <g
         id="g114">
        <g
           id="use113">
          <path
             fill="#d78b49"
             stroke="none"
             d="m -3.15,-1.95 -14.1,1.25 q 0.4,2.45 0.85,5.2 L -3.95,3 q 0.5,-2.3 0.8,-4.95 z"
             id="path20" />
          <path
             fill="#eea160"
             stroke="none"
             d="m -3.15,-1.95 q 0.35,-3.5 0.25,-7.55 -6.75,-4.25 -10.7,-12.9 l -4.55,-0.85 q -2.05,3.7 0.9,22.55 z"
             id="path21" />
        </g>
      </g>
      <g
         id="g115">
        <g
           id="use114">
          <path
             fill="#d78b49"
             stroke="none"
             d="M 16.85,-0.7 2.75,-1.95 Q 3.05,0.7 3.55,3 L 16,4.5 q 0.45,-2.75 0.85,-5.2 z"
             id="path34" />
          <path
             fill="#eea160"
             stroke="none"
             d="m 2.5,-9.5 q -0.1,4.05 0.25,7.55 l 14.1,1.25 q 2.95,-18.85 0.9,-22.55 L 13.2,-22.4 Q 9.25,-13.75 2.5,-9.5 Z"
             id="path39" />
        </g>
      </g>
      <g
         id="g116">
        <g
           id="use115">
          <path
             fill="#bfd4e5"
             stroke="none"
             d="m -13.05,-22 -2.05,3.6 13.1,7.6 2.05,-3.65 -13.1,-7.55 m 26.2,0 -13.1,7.55 2.05,3.65 13.1,-7.6 z"
             id="path40" />
          <path
             fill="#e7f3fc"
             stroke="none"
             d="M 2.1,-10.8 0.05,-14.45 -2,-10.8 Z"
             id="path41" />
        </g>
      </g>
    </g>
    <g
       transform="matrix(0.5868781,0,0,0.61820927,39.500415,53.010555)"
       id="g119">
      <g
         id="g118">
        <g
           id="use117">
          <path
             fill="#a8603f"
             stroke="none"
             d="M -9.2,7.6 -9.25,6.65 q 0.5,-6.2 3.8,-9.6 -8.7,6.45 -3.8,10.6 z"
             id="path22" />
          <path
             fill="#bf7958"
             stroke="none"
             d="M 7,-1.65 Q 6.95,-3 5.5,-3 l -10.95,0.05 q -3.3,3.4 -3.8,9.6 L -9.2,7.6 -9.25,7.65 q -0.05,1.65 0,3.5 v 0.4 q 0,1.4 2.15,1.8 3.15,0.7 6.15,0.65 Q 7.55,13.95 7,-0.75 Z"
             id="path23" />
        </g>
      </g>
    </g>
    <g
       transform="matrix(-0.5868781,0,0,0.61820927,8.5719446,53.010555)"
       id="g121">
      <g
         id="g120">
        <g
           id="use119">
          <path
             fill="#a8603f"
             stroke="none"
             d="M -9.2,7.6 -9.25,6.65 q 0.5,-6.2 3.8,-9.6 -8.7,6.45 -3.8,10.6 z"
             id="path24" />
          <path
             fill="#bf7958"
             stroke="none"
             d="M 7,-1.65 Q 6.95,-3 5.5,-3 l -10.95,0.05 q -3.3,3.4 -3.8,9.6 L -9.2,7.6 -9.25,7.65 q -0.05,1.65 0,3.5 v 0.4 q 0,1.4 2.15,1.8 3.15,0.7 6.15,0.65 Q 7.55,13.95 7,-0.75 Z"
             id="path25" />
        </g>
      </g>
    </g>
    <g
       transform="matrix(0.88465145,0,0,0.61820927,24.270929,37.060757)"
       id="g282">
      <g
         id="g281">
        <g
           id="use280">
          <path
             fill="url(#Gradient_1)"
             stroke="none"
             d="m 9.45,-9.55 q -3.9,-3.9 -9.45,-3.9 -5.55,0 -9.55,3.9 -3.9,4 -3.9,9.55 0,5.55 3.9,9.45 4,4 9.55,4 5.55,0 9.45,-4 4,-3.9 4,-9.45 0,-5.55 -4,-9.55 z"
             id="path26"
             style="fill:url(#radialGradient136)" />
        </g>
      </g>
    </g>
    <g
       transform="matrix(0.5868781,0,0,0.61820927,25.121908,32.176907)"
       id="g292">
      <g
         id="g283">
        <g
           id="use282">
          <path
             fill="#454a51"
             stroke="none"
             d="m 12.65,-35.05 -2.9,-4.55 q -14.6,-1.15 -27.35,0.9 -7.15,1 -6.5,6.8 l 0.2,1.7 q 0.95,-3.55 6.35,-4.3 12.75,-2 27.35,-0.85 l 2.85,0.3 m 10.5,4.4 0.15,-1.25 q 0.7,-5.65 -5.45,-6.8 l -4.55,3.75 4.6,0.45 q 4.3,0.8 5.25,3.85 z"
             id="path8" />
          <path
             fill="#3c3e41"
             stroke="none"
             d="m 17.9,-34.5 -4.6,-0.45 -0.4,0.3 -0.25,-0.4 -2.85,-0.3 q -14.6,-1.15 -27.35,0.85 -5.4,0.75 -6.35,4.3 l 2.25,19.4 q 0.55,4.35 5.7,4.35 h 31.1 q 5.2,0 5.7,-4.35 l 2.3,-19.85 Q 22.2,-33.7 17.9,-34.5 Z"
             id="path9" />
        </g>
      </g>
      <g
         id="g284">
        <g
           id="use283">
          <path
             fill="#bf7958"
             stroke="none"
             d="m -24.65,-11.25 q -2.35,2.35 -2.35,5.7 0,3.35 2.35,5.7 2.4,2.45 5.65,2.45 3.3,0 5.7,-2.45 2.3,-2.35 2.3,-5.7 0,-3.35 -2.3,-5.7 -2.4,-2.45 -5.7,-2.45 -3.25,0 -5.65,2.45 m 2.3,9.15 q -1.4,-1.4 -1.4,-3.45 0,-1.95 1.4,-3.45 1.4,-1.4 3.35,-1.4 2.05,0 3.45,1.4 1.4,1.5 1.4,3.45 0,2.05 -1.4,3.45 -1.4,1.45 -3.45,1.45 -1.95,0 -3.35,-1.45 m 34.7,-9.15 Q 10,-8.9 10,-5.55 q 0,3.35 2.35,5.7 2.4,2.45 5.65,2.45 3.3,0 5.7,-2.45 2.3,-2.35 2.3,-5.7 0,-3.35 -2.3,-5.7 -2.4,-2.45 -5.7,-2.45 -3.25,0 -5.65,2.45 m 2.3,2.25 q 1.4,-1.4 3.35,-1.4 2,0 3.45,1.4 1.4,1.5 1.4,3.45 0,2.05 -1.4,3.45 Q 20,-0.65 18,-0.65 16.05,-0.65 14.65,-2.1 13.2,-3.5 13.2,-5.55 13.2,-7.5 14.65,-9 Z"
             id="path1" />
          <path
             fill="#a8603f"
             stroke="none"
             d="m -23.75,-5.55 q 0,2.05 1.4,3.45 1.4,1.45 3.35,1.45 2.05,0 3.45,-1.45 1.4,-1.4 1.4,-3.45 0,-1.95 -1.4,-3.45 -1.4,-1.4 -3.45,-1.4 -1.95,0 -3.35,1.4 -1.4,1.5 -1.4,3.45 M 18,-10.4 q -1.95,0 -3.35,1.4 -1.45,1.5 -1.45,3.45 0,2.05 1.45,3.45 1.4,1.45 3.35,1.45 2,0 3.45,-1.45 1.4,-1.4 1.4,-3.45 0,-1.95 -1.4,-3.45 Q 20,-10.4 18,-10.4 Z"
             id="path2" />
        </g>
      </g>
      <g
         id="g285">
        <g
           id="use284">
          <path
             fill="#bf7958"
             stroke="none"
             d="m 11.7,8 q 5.4,-0.7 6.1,-5.8 l 2.65,-26 H -21.4 L -18.2,8 Z"
             id="path3" />
        </g>
      </g>
      <g
         id="g286">
        <g
           id="use285">
          <path
             fill="#ffffff"
             stroke="none"
             d="m -12.95,-8.15 q 0,1.75 1.1,3 1.2,1.35 3,1.35 1.7,0 2.85,-1.35 1.15,-1.25 1.15,-3 0,-1.75 -1.15,-3 -1.15,-1.3 -2.85,-1.3 -1.8,0 -3,1.3 -1.1,1.25 -1.1,3 m 2.5,0.15 v -0.25 q 0.05,-1.05 0.7,-1.8 0.7,-0.8 1.7,-0.8 1.05,0 1.75,0.8 0.65,0.75 0.7,1.8 V -8 q -0.05,1 -0.7,1.75 -0.7,0.8 -1.75,0.8 -1,0 -1.7,-0.8 Q -10.4,-7 -10.45,-8 M 5.1,-5.15 q 1.25,1.35 3,1.35 1.75,0 2.8,-1.35 1.25,-1.25 1.25,-3 0,-1.75 -1.25,-3 -1.05,-1.3 -2.8,-1.3 -1.75,0 -3,1.3 -1.1,1.25 -1.1,3 0,1.75 1.1,3 m 3.55,-4.9 q 0.7,0.75 0.75,1.8 V -8 Q 9.35,-7 8.65,-6.25 8,-5.45 7,-5.45 6,-5.45 5.2,-6.25 4.6,-7 4.55,-8 v -0.35 q 0.05,-0.95 0.65,-1.7 0.8,-0.8 1.8,-0.8 1,0 1.65,0.8 z"
             id="path18" />
          <path
             fill="#3c3e41"
             stroke="none"
             d="M -10.45,-8.25 V -8 q 0.05,1 0.7,1.75 0.7,0.8 1.7,0.8 1.05,0 1.75,-0.8 Q -5.65,-7 -5.6,-8 v -0.25 q -0.05,-1.05 -0.7,-1.8 -0.7,-0.8 -1.75,-0.8 -1,0 -1.7,0.8 -0.65,0.75 -0.7,1.8 m 19.85,0 Q 9.35,-9.3 8.65,-10.05 8,-10.85 7,-10.85 q -1,0 -1.8,0.8 -0.6,0.75 -0.65,1.7 V -8 q 0.05,1 0.65,1.75 0.8,0.8 1.8,0.8 1,0 1.65,-0.8 Q 9.35,-7 9.4,-8 Z"
             id="path19" />
        </g>
      </g>
      <g
         id="g287">
        <g
           id="use286">
          <path
             fill="#3c3e41"
             stroke="none"
             d="m -3.4,-11.3 0.2,-2.85 -10.8,-0.5 -0.15,2.85 10.75,0.5 m 6.3,-2.85 0.2,2.85 10.75,-0.5 -0.15,-2.85 z"
             id="path17" />
        </g>
      </g>
      <g
         id="g288">
        <g
           id="use287">
          <path
             fill="#3c3e41"
             stroke="none"
             d="m -0.7,-3.3 q -3.55,0 -6,1.45 -2.3,1.3 -2.6,3.1 -0.1,0.25 0,0.55 0.1,0.25 0.3,0.45 0.2,0.2 0.5,0.25 4.3,0.65 8.1,-1 3.75,1.65 8.1,1 Q 8,2.45 8.2,2.25 8.4,2.05 8.5,1.8 8.6,1.5 8.55,1.25 8.2,-0.55 5.9,-1.85 3.4,-3.3 -0.1,-3.3 q -0.15,0 -0.3,0 -0.15,0 -0.3,0 z"
             id="path7" />
        </g>
      </g>
      <g
         id="g289">
        <g
           id="use288">
          <path
             fill="#955435"
             stroke="none"
             d="m 2.1,-3.4 q 1,-0.7 1,-1.65 0,-0.9 -1,-1.65 -1,-0.65 -2.45,-0.65 -1.4,0 -2.4,0.65 -1,0.75 -1,1.65 0,0.95 1,1.65 1,0.75 2.4,0.75 1.45,0 2.45,-0.75 z"
             id="path6" />
        </g>
      </g>
      <g
         id="g290">
        <g
           id="use289">
          <path
             fill="#3c3e41"
             stroke="none"
             d="m -20.6,-23.3 h -0.05 q -1,0.15 -1.65,1 -0.65,0.75 -0.5,1.75 l 1.9,16 q 0.1,0.95 0.9,1.65 0.8,0.6 1.8,0.45 h 0.05 q 1,-0.1 1.6,-0.9 0.6,-0.8 0.5,-1.85 l -1.9,-15.9 q -0.15,-1.05 -0.95,-1.65 -0.75,-0.6 -1.7,-0.55 m 38.5,0.55 q -0.75,0.6 -0.9,1.65 l -1.9,15.9 q -0.1,1.05 0.5,1.85 0.6,0.8 1.6,0.9 h 0.05 Q 18.2,-2.3 19,-2.9 q 0.85,-0.7 0.95,-1.65 l 1.9,-16 q 0.15,-1 -0.5,-1.75 -0.65,-0.85 -1.65,-1 h -0.05 q -1,-0.05 -1.75,0.55 z"
             id="path5" />
        </g>
      </g>
      <g
         id="g291">
        <g
           id="use290">
          <path
             fill="#3c3e41"
             stroke="none"
             d="m 14.65,-19.9 q 6.4,-2.05 6.4,-4.75 0,-2.65 -6.4,-4.35 -6.3,-1.7 -15.35,-1.45 -8.95,0.3 -15.35,2.35 -6.35,2.1 -6.35,4.75 0,2.7 6.35,4.35 6.4,1.75 15.35,1.45 9.05,-0.25 15.35,-2.35 z"
             id="path4" />
        </g>
      </g>
    </g>
    <g
       transform="matrix(0.5868781,0,0,0.61820927,28.731218,51.186846)"
       id="g61">
      <g
         id="g60">
        <g
           id="g59">
          <path
             fill="#4c4eaa"
             stroke="none"
             d="M 5.3,14 5.45,9 H -6.45 L -6.6,14 H 5.25 Z"
             id="path56" />
          <path
             fill="#ffffff"
             stroke="none"
             d="M 11,20 5.25,14 H -6.6 l -0.25,6 z"
             id="path57" />
          <path
             fill="#eea160"
             stroke="none"
             d="M 10.9,23 11,20 H -6.85 L -7,23 Z"
             id="path58" />
          <path
             fill="#676ac6"
             stroke="none"
             d="M 5.9,-0.2 Q 5.9,-2.6 4,-4.3 2.15,-6 -0.55,-6 -3.2,-6 -5.1,-4.3 -7,-2.6 -7,-0.2 L -6.45,9 h 11.9 z"
             id="path59" />
        </g>
      </g>
    </g>
    <g
       transform="matrix(-0.5868781,0,0,0.61820927,19.34115,51.186846)"
       id="g66">
      <g
         id="g65">
        <g
           id="g64">
          <path
             fill="#4c4eaa"
             stroke="none"
             d="M 5.3,14 5.45,9 H -6.45 L -6.6,14 H 5.25 Z"
             id="path61" />
          <path
             fill="#ffffff"
             stroke="none"
             d="M 11,20 5.25,14 H -6.6 l -0.25,6 z"
             id="path62" />
          <path
             fill="#eea160"
             stroke="none"
             d="M 10.9,23 11,20 H -6.85 L -7,23 Z"
             id="path63" />
          <path
             fill="#676ac6"
             stroke="none"
             d="M 5.9,-0.2 Q 5.9,-2.6 4,-4.3 2.15,-6 -0.55,-6 -3.2,-6 -5.1,-4.3 -7,-2.6 -7,-0.2 L -6.45,9 h 11.9 z"
             id="path64" />
        </g>
      </g>
    </g>
    <g
       transform="matrix(0.5868781,0,0,0.61820927,34.453262,39.34814)"
       id="g71">
      <g
         id="g68">
        <g
           id="g67">
          <path
             fill="#bf7958"
             stroke="none"
             d="M 13.15,10.6 Q 11.9,7.15 9.95,3.9 4.35,5.25 -0.3,10.1 q 0.85,1.35 1.5,2.75 1.55,3.2 1.95,6.9 0.25,2.4 2.15,3.95 1.95,1.5 4.4,1.3 2.4,-0.3 3.95,-2.25 1.55,-1.85 1.3,-4.35 -0.35,-2.9 -1.1,-5.55 -0.3,-1.15 -0.7,-2.25 z"
             id="path66" />
          <path
             fill="#e7f3fc"
             stroke="none"
             d="m -0.2,-5 q -2.45,0.05 -4.2,1.8 -1.7,1.8 -1.6,4.2 0,2.45 1.7,4.15 2.4,2.3 4,4.95 Q 4.35,5.25 9.95,3.9 7.5,0.05 4,-3.35 2.25,-4.95 -0.2,-5 Z"
             id="path67" />
        </g>
      </g>
      <g
         id="g70">
        <g
           id="g69">
          <path
             fill="#bfd4e5"
             stroke="none"
             d="m 12.4,4.8 -2.05,-3.6 -12.9,7.5 2,3.55 z"
             id="path68" />
        </g>
      </g>
    </g>
    <g
       transform="matrix(-0.5868781,0,0,0.61820927,13.619106,39.34814)"
       id="g76">
      <g
         id="g73">
        <g
           id="g72">
          <path
             fill="#bf7958"
             stroke="none"
             d="M 13.15,10.6 Q 11.9,7.15 9.95,3.9 4.35,5.25 -0.3,10.1 q 0.85,1.35 1.5,2.75 1.55,3.2 1.95,6.9 0.25,2.4 2.15,3.95 1.95,1.5 4.4,1.3 2.4,-0.3 3.95,-2.25 1.55,-1.85 1.3,-4.35 -0.35,-2.9 -1.1,-5.55 -0.3,-1.15 -0.7,-2.25 z"
             id="path71" />
          <path
             fill="#e7f3fc"
             stroke="none"
             d="m -0.2,-5 q -2.45,0.05 -4.2,1.8 -1.7,1.8 -1.6,4.2 0,2.45 1.7,4.15 2.4,2.3 4,4.95 Q 4.35,5.25 9.95,3.9 7.5,0.05 4,-3.35 2.25,-4.95 -0.2,-5 Z"
             id="path72" />
        </g>
      </g>
      <g
         id="g75">
        <g
           id="g74">
          <path
             fill="#bfd4e5"
             stroke="none"
             d="m 12.4,4.8 -2.05,-3.6 -12.9,7.5 2,3.55 z"
             id="path73" />
        </g>
      </g>
    </g>
    <g
       transform="matrix(0.5868781,0,0,0.61820927,24.03618,49.39404)"
       id="g88">
      <g
         id="g79">
        <g
           id="g78">
          <path
             fill="#bfd4e5"
             stroke="none"
             d="M 14.6,2.8 V -2.15 H -15.45 V 2.8 Z"
             id="path76" />
          <path
             fill="#676ac6"
             stroke="none"
             d="m 13.1,8 q 1.4,-1.9 1.5,-5.2 h -30.05 q 0.1,3.3 1.5,5.2 z"
             id="path77" />
          <path
             fill="#e7f3fc"
             stroke="none"
             d="m 17.8,-15.8 q 1.05,-5.4 -2.6,-5.2 h -31.3 q -3.65,-0.2 -2.6,5.2 l 3.25,13.65 H 14.6 Z"
             id="path78" />
        </g>
      </g>
      <g
         id="g81">
        <g
           id="g80">
          <path
             fill="#a8603f"
             stroke="none"
             d="M 7.6,-28.45 Q 4.45,-31 0.05,-31 q -4.4,0 -7.55,2.55 -3.1,2.7 -3.1,6.45 0,0.25 0.05,0.5 0.15,3.4 3.05,5.8 3.15,2.7 7.55,2.7 4.4,0 7.55,-2.7 2.9,-2.4 3.05,-5.8 0.05,-0.25 0.05,-0.5 0,-3.75 -3.1,-6.45 z"
             id="path79" />
        </g>
      </g>
      <g
         id="g83">
        <g
           id="g82">
          <path
             fill="#d78b49"
             stroke="none"
             d="m -3.15,-1.95 -14.1,1.25 q 0.4,2.45 0.85,5.2 L -3.95,3 q 0.5,-2.3 0.8,-4.95 z"
             id="path81" />
          <path
             fill="#eea160"
             stroke="none"
             d="m -3.15,-1.95 q 0.35,-3.5 0.25,-7.55 -6.75,-4.25 -10.7,-12.9 l -4.55,-0.85 q -2.05,3.7 0.9,22.55 z"
             id="path82" />
        </g>
      </g>
      <g
         id="g85">
        <g
           id="g84">
          <path
             fill="#d78b49"
             stroke="none"
             d="M 16.85,-0.7 2.75,-1.95 Q 3.05,0.7 3.55,3 L 16,4.5 q 0.45,-2.75 0.85,-5.2 z"
             id="path83" />
          <path
             fill="#eea160"
             stroke="none"
             d="m 2.5,-9.5 q -0.1,4.05 0.25,7.55 l 14.1,1.25 q 2.95,-18.85 0.9,-22.55 L 13.2,-22.4 Q 9.25,-13.75 2.5,-9.5 Z"
             id="path84" />
        </g>
      </g>
      <g
         id="g87">
        <g
           id="g86">
          <path
             fill="#bfd4e5"
             stroke="none"
             d="m -13.05,-22 -2.05,3.6 13.1,7.6 2.05,-3.65 -13.1,-7.55 m 26.2,0 -13.1,7.55 2.05,3.65 13.1,-7.6 z"
             id="path85" />
          <path
             fill="#e7f3fc"
             stroke="none"
             d="M 2.1,-10.8 0.05,-14.45 -2,-10.8 Z"
             id="path86" />
        </g>
      </g>
    </g>
    <g
       transform="matrix(0.5868781,0,0,0.61820927,39.500415,53.010555)"
       id="g91">
      <g
         id="g90">
        <g
           id="g89">
          <path
             fill="#a8603f"
             stroke="none"
             d="M -9.2,7.6 -9.25,6.65 q 0.5,-6.2 3.8,-9.6 -8.7,6.45 -3.8,10.6 z"
             id="path88" />
          <path
             fill="#bf7958"
             stroke="none"
             d="M 7,-1.65 Q 6.95,-3 5.5,-3 l -10.95,0.05 q -3.3,3.4 -3.8,9.6 L -9.2,7.6 -9.25,7.65 q -0.05,1.65 0,3.5 v 0.4 q 0,1.4 2.15,1.8 3.15,0.7 6.15,0.65 Q 7.55,13.95 7,-0.75 Z"
             id="path89" />
        </g>
      </g>
    </g>
    <g
       transform="matrix(-0.5868781,0,0,0.61820927,8.5719446,53.010555)"
       id="g94">
      <g
         id="g93">
        <g
           id="g92">
          <path
             fill="#a8603f"
             stroke="none"
             d="M -9.2,7.6 -9.25,6.65 q 0.5,-6.2 3.8,-9.6 -8.7,6.45 -3.8,10.6 z"
             id="path91" />
          <path
             fill="#bf7958"
             stroke="none"
             d="M 7,-1.65 Q 6.95,-3 5.5,-3 l -10.95,0.05 q -3.3,3.4 -3.8,9.6 L -9.2,7.6 -9.25,7.65 q -0.05,1.65 0,3.5 v 0.4 q 0,1.4 2.15,1.8 3.15,0.7 6.15,0.65 Q 7.55,13.95 7,-0.75 Z"
             id="path92" />
        </g>
      </g>
    </g>
    <g
       transform="matrix(0.88465145,0,0,0.61820927,24.270929,37.060757)"
       id="g97">
      <g
         id="g96">
        <g
           id="g95">
          <path
             fill="url(#Gradient_1)"
             stroke="none"
             d="m 9.45,-9.55 q -3.9,-3.9 -9.45,-3.9 -5.55,0 -9.55,3.9 -3.9,4 -3.9,9.55 0,5.55 3.9,9.45 4,4 9.55,4 5.55,0 9.45,-4 4,-3.9 4,-9.45 0,-5.55 -4,-9.55 z"
             id="path94"
             style="fill:url(#radialGradient26)" />
        </g>
      </g>
    </g>
    <g
       transform="matrix(0.5868781,0,0,0.61820927,25.121908,32.176907)"
       id="g136">
      <g
         id="g99">
        <g
           id="g98">
          <path
             fill="#454a51"
             stroke="none"
             d="m 12.65,-35.05 -2.9,-4.55 q -14.6,-1.15 -27.35,0.9 -7.15,1 -6.5,6.8 l 0.2,1.7 q 0.95,-3.55 6.35,-4.3 12.75,-2 27.35,-0.85 l 2.85,0.3 m 10.5,4.4 0.15,-1.25 q 0.7,-5.65 -5.45,-6.8 l -4.55,3.75 4.6,0.45 q 4.3,0.8 5.25,3.85 z"
             id="path97" />
          <path
             fill="#3c3e41"
             stroke="none"
             d="m 17.9,-34.5 -4.6,-0.45 -0.4,0.3 -0.25,-0.4 -2.85,-0.3 q -14.6,-1.15 -27.35,0.85 -5.4,0.75 -6.35,4.3 l 2.25,19.4 q 0.55,4.35 5.7,4.35 h 31.1 q 5.2,0 5.7,-4.35 l 2.3,-19.85 Q 22.2,-33.7 17.9,-34.5 Z"
             id="path98" />
        </g>
      </g>
      <g
         id="g101">
        <g
           id="g100">
          <path
             fill="#bf7958"
             stroke="none"
             d="m -24.65,-11.25 q -2.35,2.35 -2.35,5.7 0,3.35 2.35,5.7 2.4,2.45 5.65,2.45 3.3,0 5.7,-2.45 2.3,-2.35 2.3,-5.7 0,-3.35 -2.3,-5.7 -2.4,-2.45 -5.7,-2.45 -3.25,0 -5.65,2.45 m 2.3,9.15 q -1.4,-1.4 -1.4,-3.45 0,-1.95 1.4,-3.45 1.4,-1.4 3.35,-1.4 2.05,0 3.45,1.4 1.4,1.5 1.4,3.45 0,2.05 -1.4,3.45 -1.4,1.45 -3.45,1.45 -1.95,0 -3.35,-1.45 m 34.7,-9.15 Q 10,-8.9 10,-5.55 q 0,3.35 2.35,5.7 2.4,2.45 5.65,2.45 3.3,0 5.7,-2.45 2.3,-2.35 2.3,-5.7 0,-3.35 -2.3,-5.7 -2.4,-2.45 -5.7,-2.45 -3.25,0 -5.65,2.45 m 2.3,2.25 q 1.4,-1.4 3.35,-1.4 2,0 3.45,1.4 1.4,1.5 1.4,3.45 0,2.05 -1.4,3.45 Q 20,-0.65 18,-0.65 16.05,-0.65 14.65,-2.1 13.2,-3.5 13.2,-5.55 13.2,-7.5 14.65,-9 Z"
             id="path99" />
          <path
             fill="#a8603f"
             stroke="none"
             d="m -23.75,-5.55 q 0,2.05 1.4,3.45 1.4,1.45 3.35,1.45 2.05,0 3.45,-1.45 1.4,-1.4 1.4,-3.45 0,-1.95 -1.4,-3.45 -1.4,-1.4 -3.45,-1.4 -1.95,0 -3.35,1.4 -1.4,1.5 -1.4,3.45 M 18,-10.4 q -1.95,0 -3.35,1.4 -1.45,1.5 -1.45,3.45 0,2.05 1.45,3.45 1.4,1.45 3.35,1.45 2,0 3.45,-1.45 1.4,-1.4 1.4,-3.45 0,-1.95 -1.4,-3.45 Q 20,-10.4 18,-10.4 Z"
             id="path100" />
        </g>
      </g>
      <g
         id="g123">
        <g
           id="g122">
          <path
             fill="#bf7958"
             stroke="none"
             d="m 11.7,8 q 5.4,-0.7 6.1,-5.8 l 2.65,-26 H -21.4 L -18.2,8 Z"
             id="path101" />
        </g>
      </g>
      <g
         id="g125">
        <g
           id="g124">
          <path
             fill="#ffffff"
             stroke="none"
             d="m -12.95,-8.15 q 0,1.75 1.1,3 1.2,1.35 3,1.35 1.7,0 2.85,-1.35 1.15,-1.25 1.15,-3 0,-1.75 -1.15,-3 -1.15,-1.3 -2.85,-1.3 -1.8,0 -3,1.3 -1.1,1.25 -1.1,3 m 2.5,0.15 v -0.25 q 0.05,-1.05 0.7,-1.8 0.7,-0.8 1.7,-0.8 1.05,0 1.75,0.8 0.65,0.75 0.7,1.8 V -8 q -0.05,1 -0.7,1.75 -0.7,0.8 -1.75,0.8 -1,0 -1.7,-0.8 Q -10.4,-7 -10.45,-8 M 5.1,-5.15 q 1.25,1.35 3,1.35 1.75,0 2.8,-1.35 1.25,-1.25 1.25,-3 0,-1.75 -1.25,-3 -1.05,-1.3 -2.8,-1.3 -1.75,0 -3,1.3 -1.1,1.25 -1.1,3 0,1.75 1.1,3 m 3.55,-4.9 q 0.7,0.75 0.75,1.8 V -8 Q 9.35,-7 8.65,-6.25 8,-5.45 7,-5.45 6,-5.45 5.2,-6.25 4.6,-7 4.55,-8 v -0.35 q 0.05,-0.95 0.65,-1.7 0.8,-0.8 1.8,-0.8 1,0 1.65,0.8 z"
             id="path123" />
          <path
             fill="#3c3e41"
             stroke="none"
             d="M -10.45,-8.25 V -8 q 0.05,1 0.7,1.75 0.7,0.8 1.7,0.8 1.05,0 1.75,-0.8 Q -5.65,-7 -5.6,-8 v -0.25 q -0.05,-1.05 -0.7,-1.8 -0.7,-0.8 -1.75,-0.8 -1,0 -1.7,0.8 -0.65,0.75 -0.7,1.8 m 19.85,0 Q 9.35,-9.3 8.65,-10.05 8,-10.85 7,-10.85 q -1,0 -1.8,0.8 -0.6,0.75 -0.65,1.7 V -8 q 0.05,1 0.65,1.75 0.8,0.8 1.8,0.8 1,0 1.65,-0.8 Q 9.35,-7 9.4,-8 Z"
             id="path124" />
        </g>
      </g>
      <g
         id="g127">
        <g
           id="g126">
          <path
             fill="#3c3e41"
             stroke="none"
             d="m -3.4,-11.3 0.2,-2.85 -10.8,-0.5 -0.15,2.85 10.75,0.5 m 6.3,-2.85 0.2,2.85 10.75,-0.5 -0.15,-2.85 z"
             id="path125" />
        </g>
      </g>
      <g
         id="g129">
        <g
           id="g128">
          <path
             fill="#3c3e41"
             stroke="none"
             d="m -0.7,-3.3 q -3.55,0 -6,1.45 -2.3,1.3 -2.6,3.1 -0.1,0.25 0,0.55 0.1,0.25 0.3,0.45 0.2,0.2 0.5,0.25 4.3,0.65 8.1,-1 3.75,1.65 8.1,1 Q 8,2.45 8.2,2.25 8.4,2.05 8.5,1.8 8.6,1.5 8.55,1.25 8.2,-0.55 5.9,-1.85 3.4,-3.3 -0.1,-3.3 q -0.15,0 -0.3,0 -0.15,0 -0.3,0 z"
             id="path127" />
        </g>
      </g>
      <g
         id="g131">
        <g
           id="g130">
          <path
             fill="#955435"
             stroke="none"
             d="m 2.1,-3.4 q 1,-0.7 1,-1.65 0,-0.9 -1,-1.65 -1,-0.65 -2.45,-0.65 -1.4,0 -2.4,0.65 -1,0.75 -1,1.65 0,0.95 1,1.65 1,0.75 2.4,0.75 1.45,0 2.45,-0.75 z"
             id="path129" />
        </g>
      </g>
      <g
         id="g133">
        <g
           id="g132">
          <path
             fill="#3c3e41"
             stroke="none"
             d="m -20.6,-23.3 h -0.05 q -1,0.15 -1.65,1 -0.65,0.75 -0.5,1.75 l 1.9,16 q 0.1,0.95 0.9,1.65 0.8,0.6 1.8,0.45 h 0.05 q 1,-0.1 1.6,-0.9 0.6,-0.8 0.5,-1.85 l -1.9,-15.9 q -0.15,-1.05 -0.95,-1.65 -0.75,-0.6 -1.7,-0.55 m 38.5,0.55 q -0.75,0.6 -0.9,1.65 l -1.9,15.9 q -0.1,1.05 0.5,1.85 0.6,0.8 1.6,0.9 h 0.05 Q 18.2,-2.3 19,-2.9 q 0.85,-0.7 0.95,-1.65 l 1.9,-16 q 0.15,-1 -0.5,-1.75 -0.65,-0.85 -1.65,-1 h -0.05 q -1,-0.05 -1.75,0.55 z"
             id="path131" />
        </g>
      </g>
      <g
         id="g135">
        <g
           id="g134">
          <path
             fill="#3c3e41"
             stroke="none"
             d="m 14.65,-19.9 q 6.4,-2.05 6.4,-4.75 0,-2.65 -6.4,-4.35 -6.3,-1.7 -15.35,-1.45 -8.95,0.3 -15.35,2.35 -6.35,2.1 -6.35,4.75 0,2.7 6.35,4.35 6.4,1.75 15.35,1.45 9.05,-0.25 15.35,-2.35 z"
             id="path133" />
        </g>
      </g>
    </g>
  </g>
</svg>
