<?xml version="1.0" standalone="no"?><!DOCTYPE svg PUBLIC "-//W3C//DTD SVG 1.1//EN" "http://www.w3.org/Graphics/SVG/1.1/DTD/svg11.dtd"><svg t="1756238287055" class="icon" viewBox="0 0 1024 1024" version="1.1" xmlns="http://www.w3.org/2000/svg" p-id="5298" xmlns:xlink="http://www.w3.org/1999/xlink" width="200" height="200"><path d="M0 0h1024v1024H0z" fill="#FFFFFF" p-id="5299"></path><path d="M511.701333 938.666667h-10.410666A388.736 388.736 0 0 1 128 554.666667a384 384 0 0 1 298.965333-374.186667V128a42.666667 42.666667 0 0 1 42.666667-42.666667h85.333333a42.666667 42.666667 0 0 1 42.666667 42.666667v52.48A386.261333 386.261333 0 0 1 751.573333 256l47.445334-49.92a21.333333 21.333333 0 0 1 30.336 0l30.293333 30.293333a21.333333 21.333333 0 0 1 0 29.866667l-48.213333 48.213333A384 384 0 0 1 511.701333 938.666667z m0.725334-682.666667a298.666667 298.666667 0 1 0 298.965333 298.666667 299.178667 299.178667 0 0 0-298.965333-298.666667z m150.186666 439.765333a21.632 21.632 0 0 1-15.232-6.272L512.426667 554.666667V362.666667a21.717333 21.717333 0 0 1 21.717333-21.333334 21.888 21.888 0 0 1 3.029333 0 213.333333 213.333333 0 0 1 142.677334 346.026667 22.016 22.016 0 0 1-15.786667 8.533333z" p-id="5300"></path></svg>