<svg t="1754494930520" class="icon" viewBox="0 0 1664 1024" version="1.1" xmlns="http://www.w3.org/2000/svg" p-id="8752" width="32" height="32"><path d="M0 0h1664v1024H0z" fill="#D71618" p-id="8753"></path><path d="M268.8 411.52l102.4 74.24-39.04-120.32 102.4-74.88H307.84L268.8 169.6l-39.68 120.96H102.4l102.4 74.88-39.04 120.32 103.04-74.24zM569.6 188.8l47.36-11.52-44.8-18.56 3.2-48-30.72 37.12-45.44-18.56 25.6 40.96-30.72 37.12 46.72-11.52 25.6 40.96 3.2-48z m0 402.56l47.36-11.52-44.8-17.92 3.2-48.64-30.72 37.12-45.44-18.56 25.6 41.6-30.72 37.12 46.72-11.52L566.4 640l3.2-48.64z m112.64-277.12l48 7.68-33.92-34.56 22.4-42.88-43.52 21.76-33.28-35.2 6.4 48-42.88 21.76 47.36 8.32 7.04 48 22.4-42.88z m-14.72 173.44l39.68 26.88-16-45.44 37.76-30.08-48 1.92-16.64-46.08-13.44 46.72-48.64 1.92 40.32 26.88-13.44 46.72 38.4-29.44z" fill="#FFF100" p-id="8754"></path></svg>