<?xml version="1.0" encoding="UTF-8" standalone="no"?>
<!-- Created with Inkscape (http://www.inkscape.org/) -->

<svg
   width="192"
   height="256"
   viewBox="0 0 50.799999 67.733333"
   version="1.1"
   id="svg1"
   inkscape:version="1.4.2 (f4327f4, 2025-05-13)"
   sodipodi:docname="robot.svg"
   xmlns:inkscape="http://www.inkscape.org/namespaces/inkscape"
   xmlns:sodipodi="http://sodipodi.sourceforge.net/DTD/sodipodi-0.dtd"
   xmlns:xlink="http://www.w3.org/1999/xlink"
   xmlns="http://www.w3.org/2000/svg"
   xmlns:svg="http://www.w3.org/2000/svg">
  <sodipodi:namedview
     id="namedview1"
     pagecolor="#ffffff"
     bordercolor="#000000"
     borderopacity="0.25"
     inkscape:showpageshadow="2"
     inkscape:pageopacity="0.0"
     inkscape:pagecheckerboard="0"
     inkscape:deskcolor="#d1d1d1"
     inkscape:document-units="mm"
     inkscape:zoom="4.0088384"
     inkscape:cx="135.20126"
     inkscape:cy="118.11402"
     inkscape:window-width="2560"
     inkscape:window-height="1360"
     inkscape:window-x="-11"
     inkscape:window-y="-11"
     inkscape:window-maximized="1"
     inkscape:current-layer="layer1" />
  <defs
     id="defs1">
    <radialGradient
       id="Gradient_1"
       gradientUnits="userSpaceOnUse"
       cx="0"
       cy="0"
       r="13.5875"
       fx="0"
       fy="0"
       gradientTransform="matrix( 1, 0, 0, 1, 0,0) "
       spreadMethod="pad">
      <stop
         offset="0%"
         stop-color="#000000"
         stop-opacity="0.30196078431372547"
         id="stop1" />
      <stop
         offset="100%"
         stop-color="#000000"
         stop-opacity="0"
         id="stop2" />
    </radialGradient>
    <radialGradient
       inkscape:collect="always"
       xlink:href="#Gradient_1"
       id="radialGradient28"
       gradientUnits="userSpaceOnUse"
       cx="0"
       cy="0"
       fx="0"
       fy="0"
       r="13.5875"
       spreadMethod="pad" />
  </defs>
  <g
     inkscape:label="图层 1"
     inkscape:groupmode="layer"
     id="layer1">
    <g
       transform="matrix(0.63476516,0,0,0.63476516,30.488329,49.838921)"
       id="g98">
      <g
         id="g97">
        <g
           id="use96">
          <path
             fill="#334e63"
             stroke="none"
             d="M 11,20 5.25,14 h -5.8 V 9.65 Q -0.55,8.4 -1.45,7.5 -2.35,6.6 -3.6,6.6 h -0.05 q -1.25,0 -2.15,0.9 -0.45,0.45 -0.7,1 -0.2,0.55 -0.2,1.15 L -7,23 H 10.9 L 11,20 M -3.6,8.35 q 0.6,0 1.05,0.45 0.45,0.45 0.45,1.05 0,0.6 -0.45,1.05 -0.45,0.45 -1.05,0.45 -0.6,0 -1.05,-0.45 Q -5.1,10.45 -5.1,9.85 -5.1,9.25 -4.65,8.8 -4.2,8.35 -3.6,8.35 Z"
             id="path38" />
          <path
             fill="#477ca6"
             stroke="none"
             d="M -2.55,8.8 Q -3,8.35 -3.6,8.35 q -0.6,0 -1.05,0.45 -0.45,0.45 -0.45,1.05 0,0.6 0.45,1.05 0.45,0.45 1.05,0.45 0.6,0 1.05,-0.45 0.45,-0.45 0.45,-1.05 0,-0.6 -0.45,-1.05 m 8.45,-9 Q 5.9,-2.6 4,-4.3 2.15,-6 -0.55,-6 -3.2,-6 -5.1,-4.3 -7,-2.6 -7,-0.2 l 0.5,8.7 q 0.25,-0.55 0.7,-1 0.9,-0.9 2.15,-0.9 h 0.05 q 1.25,0 2.15,0.9 0.9,0.9 0.9,2.15 V 14 h 5.8 0.05 z"
             id="path39" />
        </g>
      </g>
    </g>
    <g
       transform="matrix(-0.63476516,0,0,0.63476516,20.332087,49.838921)"
       id="g100">
      <g
         id="g99">
        <g
           id="use98">
          <path
             fill="#334e63"
             stroke="none"
             d="M 11,20 5.25,14 h -5.8 V 9.65 Q -0.55,8.4 -1.45,7.5 -2.35,6.6 -3.6,6.6 h -0.05 q -1.25,0 -2.15,0.9 -0.45,0.45 -0.7,1 -0.2,0.55 -0.2,1.15 L -7,23 H 10.9 L 11,20 M -3.6,8.35 q 0.6,0 1.05,0.45 0.45,0.45 0.45,1.05 0,0.6 -0.45,1.05 -0.45,0.45 -1.05,0.45 -0.6,0 -1.05,-0.45 Q -5.1,10.45 -5.1,9.85 -5.1,9.25 -4.65,8.8 -4.2,8.35 -3.6,8.35 Z"
             id="path40" />
          <path
             fill="#477ca6"
             stroke="none"
             d="M -2.55,8.8 Q -3,8.35 -3.6,8.35 q -0.6,0 -1.05,0.45 -0.45,0.45 -0.45,1.05 0,0.6 0.45,1.05 0.45,0.45 1.05,0.45 0.6,0 1.05,-0.45 0.45,-0.45 0.45,-1.05 0,-0.6 -0.45,-1.05 m 8.45,-9 Q 5.9,-2.6 4,-4.3 2.15,-6 -0.55,-6 -3.2,-6 -5.1,-4.3 -7,-2.6 -7,-0.2 l 0.5,8.7 q 0.25,-0.55 0.7,-1 0.9,-0.9 2.15,-0.9 h 0.05 q 1.25,0 2.15,0.9 0.9,0.9 0.9,2.15 V 14 h 5.8 0.05 z"
             id="path41" />
        </g>
      </g>
    </g>
    <g
       transform="matrix(0.63476516,0,0,0.63476516,36.677289,37.68317)"
       id="g102">
      <g
         id="g101">
        <g
           id="use100">
          <path
             fill="#477ca6"
             stroke="none"
             d="m 6.4,14.7 q -1.3080078,0 -2.45,-0.5 0.7417969,2.80957 0.85,6 0.05,1.6 1.35,2.75 1.2,1.1 2.9,1.05 1.7,-0.05 2.9,-1.25 1.1,-1.25 1.05,-2.85 -0.172266,-4.550977 -1.3,-8.5 -0.401758,0.924609 -1.2,1.7 -1.7,1.6 -4.1,1.6 m 0,-11.25 q 1.0324219,0 1.9,0.3 -2.9074219,-4.59921875 -7.7,-7.95 -1.4,-1 -3.1,-0.75 -1.7,0.25 -2.65,1.55 -1.05,1.3 -0.8,2.95 0.3,1.6 1.65,2.6 Q -1.2039062,4.3742187 0.85,7.3 1.2525391,6.0974609 2.25,5.1 4,3.45 6.4,3.45 M 5.05,7.1 Q 4.85,7.3 4.7,7.55 4.25,8.2 4.25,9.05 4.25,10.2 5.05,11 5.9,11.8 7.1,11.8 8,11.8 8.7,11.4 8.9,11.2 9.1,11 9.5,10.65 9.7,10.35 10,9.75 10,9.05 10,7.9 9.1,7.1 8.3,6.3 7.1,6.3 6.35,6.3 5.8,6.6 5.4,6.8 5.05,7.1 Z"
             id="path42" />
          <path
             fill="#334e63"
             stroke="none"
             d="m 11.7,11.4 q 0.55,-1.049023 0.55,-2.3 0,-2.3 -1.75,-4 Q 9.53125,4.1597656 8.3,3.75 7.4324219,3.45 6.4,3.45 4,3.45 2.25,5.1 1.2525391,6.0974609 0.85,7.3 q -0.3,0.8494141 -0.3,1.8 0,2.3 1.7,4 0.7962891,0.72793 1.7,1.1 1.1419922,0.5 2.45,0.5 2.4,0 4.1,-1.6 0.798242,-0.775391 1.2,-1.7 M 4.7,7.55 Q 4.85,7.3 5.05,7.1 5.4,6.8 5.8,6.6 6.35,6.3 7.1,6.3 q 1.2,0 2,0.8 0.9,0.8 0.9,1.95 0,0.7 -0.3,1.3 Q 9.5,10.65 9.1,11 8.9,11.2 8.7,11.4 8,11.8 7.1,11.8 5.9,11.8 5.05,11 4.25,10.2 4.25,9.05 4.25,8.2 4.7,7.55 Z"
             id="path43" />
        </g>
      </g>
    </g>
    <g
       transform="matrix(-0.63476516,0,0,0.63476516,14.143128,37.68317)"
       id="g104">
      <g
         id="g103">
        <g
           id="use102">
          <path
             fill="#477ca6"
             stroke="none"
             d="m 6.4,14.7 q -1.3080078,0 -2.45,-0.5 0.7417969,2.80957 0.85,6 0.05,1.6 1.35,2.75 1.2,1.1 2.9,1.05 1.7,-0.05 2.9,-1.25 1.1,-1.25 1.05,-2.85 -0.172266,-4.550977 -1.3,-8.5 -0.401758,0.924609 -1.2,1.7 -1.7,1.6 -4.1,1.6 m 0,-11.25 q 1.0324219,0 1.9,0.3 -2.9074219,-4.59921875 -7.7,-7.95 -1.4,-1 -3.1,-0.75 -1.7,0.25 -2.65,1.55 -1.05,1.3 -0.8,2.95 0.3,1.6 1.65,2.6 Q -1.2039062,4.3742187 0.85,7.3 1.2525391,6.0974609 2.25,5.1 4,3.45 6.4,3.45 M 5.05,7.1 Q 4.85,7.3 4.7,7.55 4.25,8.2 4.25,9.05 4.25,10.2 5.05,11 5.9,11.8 7.1,11.8 8,11.8 8.7,11.4 8.9,11.2 9.1,11 9.5,10.65 9.7,10.35 10,9.75 10,9.05 10,7.9 9.1,7.1 8.3,6.3 7.1,6.3 6.35,6.3 5.8,6.6 5.4,6.8 5.05,7.1 Z"
             id="path44" />
          <path
             fill="#334e63"
             stroke="none"
             d="m 11.7,11.4 q 0.55,-1.049023 0.55,-2.3 0,-2.3 -1.75,-4 Q 9.53125,4.1597656 8.3,3.75 7.4324219,3.45 6.4,3.45 4,3.45 2.25,5.1 1.2525391,6.0974609 0.85,7.3 q -0.3,0.8494141 -0.3,1.8 0,2.3 1.7,4 0.7962891,0.72793 1.7,1.1 1.1419922,0.5 2.45,0.5 2.4,0 4.1,-1.6 0.798242,-0.775391 1.2,-1.7 M 4.7,7.55 Q 4.85,7.3 5.05,7.1 5.4,6.8 5.8,6.6 6.35,6.3 7.1,6.3 q 1.2,0 2,0.8 0.9,0.8 0.9,1.95 0,0.7 -0.3,1.3 Q 9.5,10.65 9.1,11 8.9,11.2 8.7,11.4 8,11.8 7.1,11.8 5.9,11.8 5.05,11 4.25,10.2 4.25,9.05 4.25,8.2 4.7,7.55 Z"
             id="path45" />
        </g>
      </g>
    </g>
    <g
       transform="matrix(0.63476516,0,0,0.63476516,25.410209,47.998104)"
       id="g107">
      <g
         id="g105">
        <g
           id="use104">
          <path
             fill="#334e63"
             stroke="none"
             d="m -12.95,-14.9 q 1.95,-1.9 1.95,-4.6 0,-2.7 -1.95,-4.6 -1.9,-1.9 -4.6,-1.9 -2.7,0 -4.55,1.9 -1.9,1.9 -1.9,4.6 0,2.7 1.9,4.6 1.85,1.9 4.55,1.9 2.7,0 4.6,-1.9 m 34.05,0 q 1.9,-1.9 1.9,-4.6 0,-2.7 -1.9,-4.6 -1.9,-1.9 -4.6,-1.9 -2.7,0 -4.55,1.9 -1.95,1.9 -1.95,4.6 0,2.7 1.95,4.6 1.85,1.9 4.55,1.9 2.7,0 4.6,-1.9 z"
             id="path37" />
        </g>
      </g>
      <g
         id="g106">
        <g
           id="use105">
          <path
             fill="#5393c5"
             stroke="none"
             d="M 12.9,8 Q 14.3,6.05 14.4,2.75 H -15.5 Q -15.4,6.05 -14,8 Z"
             id="path33" />
          <path
             fill="#334e63"
             stroke="none"
             d="m 7.75,-2.25 q 1.35,-2.2 1.35,-5 0,-4 -2.8,-6.85 -2.85,-2.85 -6.85,-2.85 -4,0 -6.85,2.85 -2.85,2.85 -2.85,6.85 0,2.8 1.4,5 h -6.65 v 5 h 29.9 v -5 H 7.75 M 4.5,-8.8 2.85,-3.55 Q 2.8,-3.35 2.6,-3.2 2.4,-3.05 2.15,-3.05 H -3.1 q -0.2,0 -0.4,-0.15 -0.25,-0.15 -0.3,-0.35 L -5.45,-8.8 q -0.05,-0.25 0,-0.5 0.1,-0.2 0.3,-0.4 l 4.3,-3.15 q 0.15,-0.15 0.4,-0.15 0.2,0 0.45,0.15 l 4.25,3.15 q 0.15,0.2 0.25,0.4 0.05,0.25 0,0.5 z"
             id="path34" />
          <path
             fill="#ff6699"
             stroke="none"
             d="M 2.85,-3.55 4.5,-8.8 Q 4.55,-9.05 4.5,-9.3 4.4,-9.5 4.25,-9.7 L 0,-12.85 Q -0.25,-13 -0.45,-13 q -0.25,0 -0.4,0.15 l -4.3,3.15 q -0.2,0.2 -0.3,0.4 -0.05,0.25 0,0.5 l 1.65,5.25 q 0.05,0.2 0.3,0.35 0.2,0.15 0.4,0.15 h 5.25 q 0.25,0 0.45,-0.15 0.2,-0.15 0.25,-0.35 z"
             id="path35" />
          <path
             fill="#477ca6"
             stroke="none"
             d="m 17.65,-16 q 1.25,-5 -2.25,-5.25 h -5.35 q 0,-0.1 0,-0.25 0.05,-0.25 0.05,-0.5 0,-3.75 -3.05,-6.45 Q 3.9,-31 -0.5,-31 q -4.4,0 -7.55,2.55 -3.05,2.7 -3.05,6.45 0,0.25 0.05,0.5 0,0.15 0.05,0.25 h -5.15 q -3.65,-0.2 -2.6,5.25 l 3.25,13.75 h 6.65 q -1.4,-2.2 -1.4,-5 0,-4 2.85,-6.85 2.85,-2.85 6.85,-2.85 4,0 6.85,2.85 2.8,2.85 2.8,6.85 0,2.8 -1.35,5 h 6.65 z"
             id="path36" />
        </g>
      </g>
    </g>
    <g
       transform="matrix(0.63476516,0,0,0.63476516,42.136271,51.711479)"
       id="g109">
      <g
         id="g108">
        <g
           id="use107">
          <path
             fill="#bfd4e5"
             stroke="none"
             d="m -1.15,10.65 q -0.1,-0.1 -0.15,0.05 -0.1,0.15 -0.15,0.35 v 3.5 q 0,0.15 0.15,0.4 0.1,0.05 0.25,0.05 2.8,-0.05 4.8,-2.05 H 3.8 Q 5.9,10.85 6,7.85 6.05,4.8 4.05,2.7 L 3.9,2.55 Q 3.8726563,3.1056641 3.7,3.65 3.190625,5.5488281 1.5,6.6 1.75,7.146875 1.75,7.75 1.65,8.9 0.95,9.75 0.9,9.75 0.8,9.8 0.05,10.6 -1.15,10.65 M -5.7,-0.45 q -0.4146484,0.0912109 -0.85,0.2 -2.8,0.65 -4.4,3.25 -1.5,2.6 -0.85,5.5 0,0.05 0,0.1 0.75,2.75 3.1,4.25 0.15,0.1 0.3,0.1 0.1,-0.05 0.15,-0.2 L -6.3,9.7 Q -6.2,9.6 -6.2,9.5 -6.3,9.3 -6.4,9.2 -7.3,8.6 -7.6,7.5 -7.6,7.45 -7.6,7.4 -7.85,6.3 -7.25,5.3 -6.7638672,4.5146484 -6.05,4.15 -6.6167969,2.5091797 -6.2,0.8 -6.0076172,0.14257812 -5.7,-0.45 Z"
             id="path29" />
          <path
             fill="#5393c5"
             stroke="none"
             d="m 3.25,-0.3 q -1,-1.85 -3.05,-2.5 -2,-0.6 -3.95,0.45 -1.2568359,0.7472656 -1.95,1.9 -0.3076172,0.59257812 -0.5,1.25 -0.4167969,1.7091797 0.15,3.35 0.1421875,0.3259766 0.3,0.65 1.05,1.85 3.1,2.45 Q -0.6,7.8 1.25,6.8 1.3902344,6.7189453 1.5,6.6 3.190625,5.5488281 3.7,3.65 3.8726563,3.1056641 3.9,2.55 4.0580078,1.0955078 3.25,-0.3 Z"
             id="path30" />
        </g>
      </g>
    </g>
    <g
       transform="matrix(-0.63476516,0,0,0.63476516,8.6841465,51.711479)"
       id="g111">
      <g
         id="g110">
        <g
           id="use109">
          <path
             fill="#bfd4e5"
             stroke="none"
             d="m -1.15,10.65 q -0.1,-0.1 -0.15,0.05 -0.1,0.15 -0.15,0.35 v 3.5 q 0,0.15 0.15,0.4 0.1,0.05 0.25,0.05 2.8,-0.05 4.8,-2.05 H 3.8 Q 5.9,10.85 6,7.85 6.05,4.8 4.05,2.7 L 3.9,2.55 Q 3.8726563,3.1056641 3.7,3.65 3.190625,5.5488281 1.5,6.6 1.75,7.146875 1.75,7.75 1.65,8.9 0.95,9.75 0.9,9.75 0.8,9.8 0.05,10.6 -1.15,10.65 M -5.7,-0.45 q -0.4146484,0.0912109 -0.85,0.2 -2.8,0.65 -4.4,3.25 -1.5,2.6 -0.85,5.5 0,0.05 0,0.1 0.75,2.75 3.1,4.25 0.15,0.1 0.3,0.1 0.1,-0.05 0.15,-0.2 L -6.3,9.7 Q -6.2,9.6 -6.2,9.5 -6.3,9.3 -6.4,9.2 -7.3,8.6 -7.6,7.5 -7.6,7.45 -7.6,7.4 -7.85,6.3 -7.25,5.3 -6.7638672,4.5146484 -6.05,4.15 -6.6167969,2.5091797 -6.2,0.8 -6.0076172,0.14257812 -5.7,-0.45 Z"
             id="path31" />
          <path
             fill="#5393c5"
             stroke="none"
             d="m 3.25,-0.3 q -1,-1.85 -3.05,-2.5 -2,-0.6 -3.95,0.45 -1.2568359,0.7472656 -1.95,1.9 -0.3076172,0.59257812 -0.5,1.25 -0.4167969,1.7091797 0.15,3.35 0.1421875,0.3259766 0.3,0.65 1.05,1.85 3.1,2.45 Q -0.6,7.8 1.25,6.8 1.3902344,6.7189453 1.5,6.6 3.190625,5.5488281 3.7,3.65 3.8726563,3.1056641 3.9,2.55 4.0580078,1.0955078 3.25,-0.3 Z"
             id="path32" />
        </g>
      </g>
    </g>
    <g
       transform="matrix(0.95683565,0,0,0.63476516,25.664114,35.334538)"
       id="g251">
      <g
         id="g250">
        <g
           id="use249">
          <path
             fill="url(#Gradient_1)"
             stroke="none"
             d="m 9.45,-9.55 q -3.9,-3.9 -9.45,-3.9 -5.55,0 -9.55,3.9 -3.9,4 -3.9,9.55 0,5.55 3.9,9.45 4,4 9.55,4 5.55,0 9.45,-4 4,-3.9 4,-9.45 0,-5.55 -4,-9.55 z"
             id="path28"
             style="fill:url(#radialGradient28)" />
        </g>
      </g>
    </g>
    <g
       transform="matrix(0.63476516,0,0,0.63476516,26.584524,30.319894)"
       id="g261">
      <g
         id="g252">
        <g
           id="use251">
          <path
             fill="#bfd4e5"
             stroke="none"
             d="M 11.85,-7.1 Q 17,-12.2 17,-19.45 17,-26.7 11.85,-31.85 6.7,-37 -0.55,-37 q -7.25,0 -12.4,5.15 -5.15,5.15 -5.15,12.4 0,7.25 5.15,12.35 5.15,5.2 12.4,5.2 7.25,0 12.4,-5.2 M 9.4,-19.45 q 0,4.1 -2.9,7 -2.95,2.95 -7.05,2.95 -4.1,0 -7,-2.95 -2.95,-2.9 -2.95,-7 0,-4.1 2.95,-7 2.9,-2.95 7,-2.95 4.1,0 7.05,2.95 2.9,2.9 2.9,7 z"
             id="path14" />
          <path
             fill="#ffffff"
             stroke="none"
             d="m 6.5,-12.45 q 2.9,-2.9 2.9,-7 0,-4.1 -2.9,-7 -2.95,-2.95 -7.05,-2.95 -4.1,0 -7,2.95 -2.95,2.9 -2.95,7 0,4.1 2.95,7 2.9,2.95 7,2.95 4.1,0 7.05,-2.95 z"
             id="path15" />
        </g>
      </g>
      <g
         id="g253">
        <g
           id="use252">
          <path
             fill="#477ca6"
             stroke="none"
             d="m -16,-30.45 q -0.95,0.55 -1.25,1.65 l -2.2,8.2 q -0.3,1.1 0.25,2.15 0.65,0.95 1.75,1.25 h 0.05 q 1.1,0.3 2.1,-0.2 1,-0.65 1.3,-1.75 l 2.15,-8.2 q 0.3,-1.1 -0.3,-2.1 -0.55,-1 -1.6,-1.3 h -0.05 q -1.1,-0.3 -2.2,0.3 z"
             id="path16" />
        </g>
      </g>
      <g
         id="g254">
        <g
           id="use253">
          <path
             fill="#477ca6"
             stroke="none"
             d="m 16.3,-28.8 q -0.3,-1.1 -1.25,-1.65 -1.1,-0.6 -2.2,-0.3 H 12.8 q -1.1,0.3 -1.65,1.3 -0.6,1 -0.3,2.1 l 2.2,8.2 q 0.3,1.1 1.3,1.75 1,0.5 2.1,0.2 h 0.05 q 1.05,-0.3 1.7,-1.25 0.55,-1.05 0.25,-2.15 z"
             id="path17" />
        </g>
      </g>
      <g
         id="g255">
        <g
           id="use254">
          <path
             fill="#5393c5"
             stroke="none"
             d="m -24.65,-11 q -2.35,2.35 -2.35,5.65 0,3.3 2.35,5.6 2.4,2.4 5.65,2.4 3.3,0 5.7,-2.4 2.3,-2.3 2.3,-5.6 0,-3.3 -2.3,-5.65 -2.4,-2.4 -5.7,-2.4 -3.25,0 -5.65,2.4 m 2.3,9.05 q -1.4,-1.4 -1.4,-3.4 0,-1.95 1.4,-3.4 1.4,-1.4 3.35,-1.4 2.05,0 3.45,1.4 1.4,1.45 1.4,3.4 0,2 -1.4,3.4 -1.4,1.45 -3.45,1.45 -1.95,0 -3.35,-1.45 M 12.35,-11 Q 10,-8.65 10,-5.35 q 0,3.3 2.35,5.6 2.4,2.4 5.65,2.4 3.3,0 5.7,-2.4 2.3,-2.3 2.3,-5.6 0,-3.3 -2.3,-5.65 -2.4,-2.4 -5.7,-2.4 -3.25,0 -5.65,2.4 m 2.3,2.25 q 1.4,-1.4 3.35,-1.4 2,0 3.45,1.4 1.4,1.45 1.4,3.4 0,2 -1.4,3.4 Q 20,-0.5 18,-0.5 q -1.95,0 -3.35,-1.45 -1.45,-1.4 -1.45,-3.4 0,-1.95 1.45,-3.4 z"
             id="path7" />
          <path
             fill="#477ca6"
             stroke="none"
             d="m -23.75,-5.35 q 0,2 1.4,3.4 1.4,1.45 3.35,1.45 2.05,0 3.45,-1.45 1.4,-1.4 1.4,-3.4 0,-1.95 -1.4,-3.4 -1.4,-1.4 -3.45,-1.4 -1.95,0 -3.35,1.4 -1.4,1.45 -1.4,3.4 M 18,-10.15 q -1.95,0 -3.35,1.4 -1.45,1.45 -1.45,3.4 0,2 1.45,3.4 1.4,1.45 3.35,1.45 2,0 3.45,-1.45 1.4,-1.4 1.4,-3.4 0,-1.95 -1.4,-3.4 -1.45,-1.4 -3.45,-1.4 z"
             id="path8" />
        </g>
      </g>
      <g
         id="g256">
        <g
           id="use255">
          <path
             fill="#334e63"
             stroke="none"
             d="m -18.2,8 h 8 q -0.05,-9.8 -9.3,-12.7 L -18.2,8 m 29.9,0 q 5.35,-0.7 6.1,-5.7 l 0.9,-8.75 Q 9.65,-1.8 9.3,8 Z"
             id="path5" />
          <path
             fill="#5393c5"
             stroke="none"
             d="m 18.7,-6.45 1.75,-16.9 H -21.4 l 1.9,18.65 q 9.25,2.9 9.3,12.7 H 9.3 q 0.35,-9.8 9.4,-14.45 z"
             id="path6" />
        </g>
      </g>
      <g
         id="g257">
        <g
           id="use256">
          <path
             fill="#477ca6"
             stroke="none"
             d="m 5.45,-4.6 q 2.35,-2.35 2.35,-5.65 0,-3.35 -2.35,-5.65 -2.35,-2.35 -5.65,-2.35 -3.35,0 -5.65,2.35 -2.35,2.3 -2.35,5.65 0,3.3 2.35,5.65 2.3,2.35 5.65,2.35 3.3,0 5.65,-2.35 m -0.3,-5.65 q 0,2.2 -1.6,3.75 -1.55,1.6 -3.75,1.6 -2.25,0 -3.85,-1.6 -1.55,-1.55 -1.55,-3.75 0,-2.25 1.55,-3.85 1.6,-1.5 3.85,-1.5 2.2,0 3.75,1.5 1.6,1.6 1.6,3.85 z"
             id="path1" />
          <path
             fill="#ffcc00"
             stroke="none"
             d="m 3.55,-6.5 q 1.6,-1.55 1.6,-3.75 0,-2.25 -1.6,-3.85 -1.55,-1.5 -3.75,-1.5 -2.25,0 -3.85,1.5 -1.55,1.6 -1.55,3.85 0,2.2 1.55,3.75 1.6,1.6 3.85,1.6 2.2,0 3.75,-1.6 M 2.9,-10.25 q 0,0.9 -0.65,1.5 -0.55,0.65 -1.45,0.65 -0.9,0 -1.55,-0.65 -0.6,-0.6 -0.6,-1.5 0,-0.9 0.6,-1.55 0.65,-0.6 1.55,-0.6 0.9,0 1.45,0.6 0.65,0.65 0.65,1.55 z"
             id="path2" />
          <path
             fill="#ffffff"
             stroke="none"
             d="m 2.25,-8.75 q 0.65,-0.6 0.65,-1.5 0,-0.9 -0.65,-1.55 -0.55,-0.6 -1.45,-0.6 -0.9,0 -1.55,0.6 -0.6,0.65 -0.6,1.55 0,0.9 0.6,1.5 0.65,0.65 1.55,0.65 0.9,0 1.45,-0.65 z"
             id="path3" />
        </g>
      </g>
      <g
         id="g258">
        <g
           id="use257">
          <path
             fill="#bfd4e5"
             stroke="none"
             d="M 4.95,1.15 Q 4.95,0.85 4.9,0.6 4.55,0.5 4.15,0.5 H -5.3 Q -5.65,0.5 -6,0.6 -6.05,0.85 -6.05,1.15 V 1.2 q 0,0.95 0.6,1.6 0.7,0.7 1.65,0.7 h 6.45 q 0.95,0 1.6,-0.7 0.7,-0.65 0.7,-1.6 z"
             id="path18" />
          <path
             fill="#334e63"
             stroke="none"
             d="M 7.1,3.45 Q 7.1,2.25 6.2,1.35 5.6,0.75 4.9,0.6 4.95,0.85 4.95,1.15 V 1.2 q 0,0.95 -0.7,1.6 Q 3.6,3.5 2.65,3.5 H -3.8 q -0.95,0 -1.65,-0.7 -0.6,-0.65 -0.6,-1.6 V 1.15 q 0,-0.3 0.05,-0.55 -0.75,0.15 -1.35,0.75 -0.85,0.9 -0.85,2.1 0,1.2 0.85,2.05 0.9,0.9 2.05,0.9 H 4.15 Q 5.35,6.4 6.2,5.5 7.1,4.65 7.1,3.45 Z"
             id="path19" />
        </g>
      </g>
      <g
         id="g259">
        <g
           id="use258">
          <path
             fill="#477ca6"
             stroke="none"
             d="m 15.15,-7.9 q 0.9,-0.85 0.9,-2.05 0,-1.2 -0.9,-2.1 -0.85,-0.85 -2.05,-0.85 -1.2,0 -2.1,0.85 -0.85,0.9 -0.85,2.1 0,1.2 0.85,2.05 0.9,0.85 2.1,0.85 1.2,0 2.05,-0.85 z"
             id="path9" />
        </g>
      </g>
      <g
         id="g260">
        <g
           id="use259">
          <path
             fill="#477ca6"
             stroke="none"
             d="m -11.55,-7.9 q 0.9,-0.85 0.9,-2.05 0,-1.2 -0.9,-2.1 -0.85,-0.85 -2,-0.85 -1.2,0 -2.1,0.85 -0.85,0.9 -0.85,2.1 0,1.2 0.85,2.05 0.9,0.85 2.1,0.85 1.15,0 2,-0.85 z"
             id="path4" />
        </g>
      </g>
    </g>
  </g>
</svg>
