<?xml version="1.0" encoding="UTF-8" standalone="no"?>
<!-- Created with Inkscape (http://www.inkscape.org/) -->

<svg
   width="192"
   height="256"
   viewBox="0 0 50.799999 67.733333"
   version="1.1"
   id="svg1"
   inkscape:version="1.4.2 (f4327f4, 2025-05-13)"
   sodipodi:docname="绘图.svg"
   xmlns:inkscape="http://www.inkscape.org/namespaces/inkscape"
   xmlns:sodipodi="http://sodipodi.sourceforge.net/DTD/sodipodi-0.dtd"
   xmlns:xlink="http://www.w3.org/1999/xlink"
   xmlns="http://www.w3.org/2000/svg"
   xmlns:svg="http://www.w3.org/2000/svg">
  <sodipodi:namedview
     id="namedview1"
     pagecolor="#ffffff"
     bordercolor="#000000"
     borderopacity="0.25"
     inkscape:showpageshadow="2"
     inkscape:pageopacity="0.0"
     inkscape:pagecheckerboard="0"
     inkscape:deskcolor="#d1d1d1"
     inkscape:document-units="mm"
     inkscape:zoom="2.8346768"
     inkscape:cx="168.27315"
     inkscape:cy="112.35849"
     inkscape:window-width="2560"
     inkscape:window-height="1360"
     inkscape:window-x="-11"
     inkscape:window-y="-11"
     inkscape:window-maximized="1"
     inkscape:current-layer="layer1" />
  <defs
     id="defs1">
    <radialGradient
       id="Gradient_1"
       gradientUnits="userSpaceOnUse"
       cx="0"
       cy="0"
       r="13.5875"
       fx="0"
       fy="0"
       gradientTransform="matrix( 1, 0, 0, 1, 0,0) "
       spreadMethod="pad">
      <stop
         offset="0%"
         stop-color="#000000"
         stop-opacity="0.30196078431372547"
         id="stop1" />
      <stop
         offset="100%"
         stop-color="#000000"
         stop-opacity="0"
         id="stop2" />
    </radialGradient>
    <radialGradient
       inkscape:collect="always"
       xlink:href="#Gradient_1"
       id="radialGradient90"
       gradientUnits="userSpaceOnUse"
       cx="0"
       cy="0"
       fx="0"
       fy="0"
       r="13.5875"
       spreadMethod="pad" />
  </defs>
  <g
     inkscape:label="图层 1"
     inkscape:groupmode="layer"
     id="layer1">
    <g
       id="back_FL_FL_FL_FL_FL_FL_FL_FL_FL_FL_FL_FL_FL_FL_FL_FL_FL_FL_FL_FL_FL_FL_FL_FL_FL_FL_FL_FL_FL_FL_FL_FL_FL_FL_FL_FL_FL_FL"
       transform="matrix(0.60381735,0,0,0.60381735,26.465661,49.117233)">
      <g
         id="g172">
        <g
           id="use172">
          <path
             fill="#454a51"
             stroke="none"
             d="m -16.4,-34.65 -3.7,-0.2 q -0.6,-0.05 -1.1,0.4 -0.5,0.45 -0.55,1.1 -0.35,7.05 -5.6,12.4 -0.45,0.35 -0.45,1 -0.05,0.7 0.35,1.15 v 0.05 q 0.05,-0.05 0.1,-0.1 7.75,-6.75 10.4,-14.85 0.15,-0.5 0.55,-0.95 z"
             id="path107" />
          <path
             fill="#3c3e41"
             stroke="none"
             d="m -5.95,-34.05 -10.45,-0.6 q -0.4,0.45 -0.55,0.95 -2.65,8.1 -10.4,14.85 -0.05,0.05 -0.1,0.1 0.45,0.45 1.05,0.55 16.5,1.75 21.9,-13.65 0.15,-0.55 0.05,-1 -0.15,-0.5 -0.55,-0.8 -0.45,-0.4 -0.95,-0.4 z"
             id="path108" />
        </g>
      </g>
      <g
         id="g173">
        <g
           id="use173">
          <path
             fill="#3c3e41"
             stroke="none"
             d="m 17,-33.7 q -0.15,-0.5 -0.55,-0.95 L 6,-34.05 q -0.5,0 -0.95,0.4 -0.4,0.3 -0.55,0.8 -0.1,0.45 0.05,1 5.4,15.4 21.9,13.65 0.6,-0.1 1.05,-0.55 -0.05,-0.05 -0.1,-0.1 Q 19.65,-25.6 17,-33.7 Z"
             id="path117" />
          <path
             fill="#454a51"
             stroke="none"
             d="m 21.8,-33.35 q -0.05,-0.65 -0.55,-1.1 -0.5,-0.45 -1.1,-0.4 l -3.7,0.2 q 0.4,0.45 0.55,0.95 2.65,8.1 10.4,14.85 0.05,0.05 0.1,0.1 v -0.05 q 0.4,-0.45 0.35,-1.15 0,-0.65 -0.45,-1 -5.25,-5.35 -5.6,-12.4 z"
             id="path118" />
        </g>
      </g>
    </g>
    <g
       transform="matrix(0.60381735,0,0,0.60381735,30.511236,52.589183)"
       id="g195">
      <g
         id="g194">
        <g
           id="use193">
          <path
             fill="#ffffff"
             stroke="none"
             d="M 10.9,23 11,20 H -3.95 v 3 z"
             id="path109" />
          <path
             fill="#bfd4e5"
             stroke="none"
             d="M 11,20 Q 6.15,18.65 5.25,14 h -9.2 v 6 z"
             id="path110" />
          <path
             fill="#bf7958"
             stroke="none"
             d="M 5.25,14 H 5.3 L 5.45,9 h -9.4 v 5 z"
             id="path111" />
          <path
             fill="#676ac6"
             stroke="none"
             d="M 5.9,-0.2 Q 5.9,-2.6 4,-4.3 2.15,-6 -0.55,-6 -3.2,-6 -5.1,-4.3 -7,-2.6 -7,-0.2 -4.05,2.2 -3.95,9 h 9.4 z"
             id="path112" />
        </g>
      </g>
    </g>
    <g
       transform="matrix(-0.60381735,0,0,0.60381735,20.850159,52.589183)"
       id="g197">
      <g
         id="g196">
        <g
           id="use195">
          <path
             fill="#ffffff"
             stroke="none"
             d="M 10.9,23 11,20 H -3.95 v 3 z"
             id="path113" />
          <path
             fill="#bfd4e5"
             stroke="none"
             d="M 11,20 Q 6.15,18.65 5.25,14 h -9.2 v 6 z"
             id="path114" />
          <path
             fill="#bf7958"
             stroke="none"
             d="M 5.25,14 H 5.3 L 5.45,9 h -9.4 v 5 z"
             id="path115" />
          <path
             fill="#676ac6"
             stroke="none"
             d="M 5.9,-0.2 Q 5.9,-2.6 4,-4.3 2.15,-6 -0.55,-6 -3.2,-6 -5.1,-4.3 -7,-2.6 -7,-0.2 -4.05,2.2 -3.95,9 h 9.4 z"
             id="path116" />
        </g>
      </g>
    </g>
    <g
       transform="matrix(0.60381735,0,0,0.60381735,36.398456,41.026083)"
       id="g199">
      <g
         id="g198">
        <g
           id="use197">
          <path
             fill="#bf7958"
             stroke="none"
             d="M 4.85,17.35 Q 5.5,20.9 5.75,22.85 6,24.8 8.15,25 10.2,25.15 11.8,23.8 13.4,22.45 13.6,20.45 14,16 12.95,11.9 L 4.2,15.15 q 0.45,1.15 0.65,2.2 z"
             id="path101" />
          <path
             fill="#3dbf7b"
             stroke="none"
             d="M 0.3,8.75 Q 1.55,10.4 2.5,11.9 L 11.6,8.05 Q 10.7,6 9.4,4 6.8,0 2.6,-3.7 1,-5.1 -1.1,-5 -3.25,-4.9 -4.6,-3.35 -6.1,-1.9 -6,0.2 q 0.1,2.05 1.7,3.4 2.8,2.5 4.6,5.15 z"
             id="path102" />
          <path
             fill="#25a863"
             stroke="none"
             d="M 12.95,11.9 14,11.45 12.9,7.5 11.6,8.05 2.5,11.9 l -0.9,0.35 1.3,3.4 1.3,-0.5 z"
             id="path103" />
        </g>
      </g>
    </g>
    <g
       transform="matrix(-0.60381735,0,0,0.60381735,14.962941,41.026083)"
       id="g201">
      <g
         id="g200">
        <g
           id="use199">
          <path
             fill="#bf7958"
             stroke="none"
             d="M 4.85,17.35 Q 5.5,20.9 5.75,22.85 6,24.8 8.15,25 10.2,25.15 11.8,23.8 13.4,22.45 13.6,20.45 14,16 12.95,11.9 L 4.2,15.15 q 0.45,1.15 0.65,2.2 z"
             id="path104" />
          <path
             fill="#3dbf7b"
             stroke="none"
             d="M 0.3,8.75 Q 1.55,10.4 2.5,11.9 L 11.6,8.05 Q 10.7,6 9.4,4 6.8,0 2.6,-3.7 1,-5.1 -1.1,-5 -3.25,-4.9 -4.6,-3.35 -6.1,-1.9 -6,0.2 q 0.1,2.05 1.7,3.4 2.8,2.5 4.6,5.15 z"
             id="path105" />
          <path
             fill="#25a863"
             stroke="none"
             d="M 12.95,11.9 14,11.45 12.9,7.5 11.6,8.05 2.5,11.9 l -0.9,0.35 1.3,3.4 1.3,-0.5 z"
             id="path106" />
        </g>
      </g>
    </g>
    <g
       transform="matrix(0.60381735,0,0,0.60381735,25.680698,50.838114)"
       id="g204">
      <g
         id="g202">
        <g
           id="use201">
          <path
             fill="#676ac6"
             stroke="none"
             d="M -13.75,3.45 Q -13.8,5.6 -13.15,8 h 25.3 q 0.65,-2.4 0.6,-4.55 z"
             id="path95" />
          <path
             fill="#25a863"
             stroke="none"
             d="m -13.9,-1.5 h 2.95 q 0.75,-4.25 -4.55,-8 l 0.2,0.8 q 1.05,3.35 1.4,7.2 m 28.2,-7.2 0.2,-0.8 q -5.3,3.75 -4.5,8 h 2.95 Q 13.3,-5.35 14.3,-8.7 M 9.45,-9.1 q 0,-0.85 -2.85,-1.5 -2.95,-0.5 -7.1,-0.5 -4.15,0 -7.1,0.5 -2.85,0.65 -2.85,1.5 0,0.85 2.85,1.35 2.95,0.65 7.1,0.65 4.15,0 7.1,-0.65 2.85,-0.5 2.85,-1.35 z"
             id="path96" />
          <path
             fill="#3c3e41"
             stroke="none"
             d="M 14.1,-1.5 H 12.95 10 -10.95 -13.9 -15.05 l 0.75,4.95 h 0.55 26.5 0.6 z"
             id="path97" />
          <path
             fill="#3dbf7b"
             stroke="none"
             d="m 17.75,-15.85 q 1,-5.05 -2.1,-5.25 -0.25,0 -0.5,0 h -31.3 q -3.65,-0.2 -2.6,5.25 2.2,3.15 3.45,7.15 l -0.2,-0.8 q 5.3,3.75 4.55,8 H 10 q -0.8,-4.25 4.5,-8 l -0.2,0.8 q 1.25,-4 3.45,-7.15 M 6.6,-10.6 q 2.85,0.65 2.85,1.5 0,0.85 -2.85,1.35 -2.95,0.65 -7.1,0.65 -4.15,0 -7.1,-0.65 -2.85,-0.5 -2.85,-1.35 0,-0.85 2.85,-1.5 2.95,-0.5 7.1,-0.5 4.15,0 7.1,0.5 z"
             id="path98" />
        </g>
      </g>
      <g
         id="g203">
        <g
           id="use202">
          <path
             fill="#ffffff"
             stroke="none"
             d="m 10.05,-21.25 q -0.3,3.2 -3,5.5 -3.15,2.65 -7.55,2.65 -4.4,0 -7.55,-2.65 -2.7,-2.25 -2.95,-5.4 -0.55,1.25 -0.55,2.6 0,0.25 0.05,0.5 0.15,3.1 3.15,5.25 3.25,2.45 7.85,2.45 4.6,0 7.9,-2.45 3,-2.15 3.15,-5.25 0.05,-0.25 0.05,-0.5 0,-1.4 -0.55,-2.7 z"
             id="path99" />
          <path
             fill="#bf7958"
             stroke="none"
             d="m 10.1,-22.05 q 0,-3.7 -3.05,-6.4 Q 3.9,-31 -0.5,-31 q -4.4,0 -7.55,2.55 -3.05,2.7 -3.05,6.4 0,0.25 0.05,0.5 0,0.2 0.05,0.4 0.25,3.15 2.95,5.4 3.15,2.65 7.55,2.65 4.4,0 7.55,-2.65 2.7,-2.3 3,-5.5 0,-0.15 0,-0.3 0.05,-0.25 0.05,-0.5 z"
             id="path100" />
        </g>
      </g>
    </g>
    <g
       transform="matrix(0.60381735,0,0,0.60381735,41.591287,54.370444)"
       id="g206">
      <g
         id="g205">
        <g
           id="use204">
          <path
             fill="#a8603f"
             stroke="none"
             d="M -8.35,7.6 -8.4,6.65 Q -7.9,0.45 -3.8,-3 -13.2,3.55 -8.4,7.65 Z"
             id="path91" />
          <path
             fill="#bf7958"
             stroke="none"
             d="m 4.2,-3 h -8 Q -7.9,0.45 -8.4,6.65 L -8.35,7.6 -8.4,7.65 q -0.05,1.65 0,3.55 v 0.35 q 0,1.45 2.05,1.85 3.1,0.65 6,0.6 7.4,-0.05 4.55,-17 z"
             id="path92" />
        </g>
      </g>
    </g>
    <g
       transform="matrix(-0.60381735,0,0,0.60381735,9.7701115,54.370444)"
       id="g208">
      <g
         id="g207">
        <g
           id="use206">
          <path
             fill="#a8603f"
             stroke="none"
             d="M -8.35,7.6 -8.4,6.65 Q -7.9,0.45 -3.8,-3 -13.2,3.55 -8.4,7.65 Z"
             id="path93" />
          <path
             fill="#bf7958"
             stroke="none"
             d="m 4.2,-3 h -8 Q -7.9,0.45 -8.4,6.65 L -8.35,7.6 -8.4,7.65 q -0.05,1.65 0,3.55 v 0.35 q 0,1.45 2.05,1.85 3.1,0.65 6,0.6 7.4,-0.05 4.55,-17 z"
             id="path94" />
        </g>
      </g>
    </g>
    <g
       transform="matrix(0.9101854,0,0,0.60381735,25.922225,38.791956)"
       id="g364">
      <g
         id="g363">
        <g
           id="use362">
          <path
             fill="url(#Gradient_1)"
             stroke="none"
             d="m 9.45,-9.55 q -3.9,-3.9 -9.45,-3.9 -5.55,0 -9.55,3.9 -3.9,4 -3.9,9.55 0,5.55 3.9,9.45 4,4 9.55,4 5.55,0 9.45,-4 4,-3.9 4,-9.45 0,-5.55 -4,-9.55 z"
             id="path90"
             style="fill:url(#radialGradient90)" />
        </g>
      </g>
    </g>
    <g
       transform="matrix(0.60381735,0,0,0.60381735,26.79776,34.0218)"
       id="g379">
      <g
         id="g365">
        <g
           id="use364">
          <path
             fill="#3c3e41"
             stroke="none"
             d="m 23.75,-18.55 q -0.55,-7.2 -7.2,-12.45 -7.25,-5.75 -17.5,-5.75 -10.25,0 -17.5,5.75 -6.6,5.25 -7.15,12.45 0.55,8.15 7.15,14.05 7.25,6.5 17.5,6.5 10.25,0 17.5,-6.5 6.65,-5.9 7.2,-14.05 z"
             id="path88" />
          <path
             fill="#454a51"
             stroke="none"
             d="m 23.8,-20 q 0,-9.1 -7.25,-15.6 -7.25,-6.4 -17.5,-6.4 -10.25,0 -17.5,6.4 -7.2,6.5 -7.2,15.6 0,0.75 0.05,1.45 0.55,-7.2 7.15,-12.45 7.25,-5.75 17.5,-5.75 10.25,0 17.5,5.75 6.65,5.25 7.2,12.45 0.05,-0.7 0.05,-1.45 z"
             id="path89" />
        </g>
      </g>
      <g
         id="g366">
        <g
           id="use365">
          <path
             fill="#bf7958"
             stroke="none"
             d="m -24.65,-16.95 q -2.35,2.35 -2.35,5.75 0,3.3 2.35,5.65 2.35,2.45 5.65,2.45 3.25,0 5.65,-2.45 2.35,-2.35 2.35,-5.65 0,-3.4 -2.35,-5.75 -2.4,-2.4 -5.65,-2.4 -3.3,0 -5.65,2.4 m 2.25,9.15 q -1.4,-1.4 -1.4,-3.4 0,-1.95 1.4,-3.5 1.4,-1.4 3.4,-1.4 2.05,0 3.4,1.4 1.4,1.55 1.4,3.5 0,2 -1.4,3.4 -1.35,1.45 -3.4,1.45 -2,0 -3.4,-1.45 m 34.75,2.25 q 2.35,2.45 5.65,2.45 3.25,0 5.65,-2.45 Q 26,-7.9 26,-11.2 q 0,-3.4 -2.35,-5.75 -2.4,-2.4 -5.65,-2.4 -3.3,0 -5.65,2.4 -2.35,2.35 -2.35,5.75 0,3.3 2.35,5.65 m 2.25,-9.15 q 1.4,-1.4 3.4,-1.4 2,0 3.4,1.4 1.4,1.55 1.4,3.5 0,2 -1.4,3.4 -1.4,1.45 -3.4,1.45 -2,0 -3.4,-1.45 -1.4,-1.4 -1.4,-3.4 0,-1.95 1.4,-3.5 z"
             id="path86" />
          <path
             fill="#a8603f"
             stroke="none"
             d="m -23.8,-11.2 q 0,2 1.4,3.4 1.4,1.45 3.4,1.45 2.05,0 3.4,-1.45 1.4,-1.4 1.4,-3.4 0,-1.95 -1.4,-3.5 -1.35,-1.4 -3.4,-1.4 -2,0 -3.4,1.4 -1.4,1.55 -1.4,3.5 M 18,-16.1 q -2,0 -3.4,1.4 -1.4,1.55 -1.4,3.5 0,2 1.4,3.4 1.4,1.45 3.4,1.45 2,0 3.4,-1.45 1.4,-1.4 1.4,-3.4 0,-1.95 -1.4,-3.5 -1.4,-1.4 -3.4,-1.4 z"
             id="path87" />
        </g>
      </g>
      <g
         id="g367">
        <g
           id="use366">
          <path
             fill="#bf7958"
             stroke="none"
             d="m 18.1,-3.65 2.3,-22.55 h -41.85 l 2.3,22.55 q 2.05,7.4 10.4,10.3 4.2,1.45 8.2,1.35 4.05,0.1 8.2,-1.35 8.4,-2.9 10.45,-10.3 z"
             id="path77" />
        </g>
      </g>
      <g
         id="g368">
        <g
           id="use367">
          <path
             fill="#955435"
             stroke="none"
             d="m 1.85,-4.85 q 1.05,-0.7 1.05,-1.6 0,-0.9 -1.05,-1.65 -1,-0.65 -2.45,-0.65 -1.35,0 -2.35,0.65 -1,0.75 -1,1.65 0,0.9 1,1.6 1,0.8 2.35,0.8 1.45,0 2.45,-0.8 z"
             id="path85" />
        </g>
      </g>
      <g
         id="g369">
        <g
           id="use368">
          <path
             fill="#3c3e41"
             stroke="none"
             d="m -13.1,-9.2 q 0,-0.2 0,-0.35 0,-1.75 1.15,-3 0.95,-1 2.3,-1.25 h -5.75 q 2.1,1.65 2.3,4.6 m 6.65,2.15 q 0.7,-1 0.7,-2.5 0,-1.45 -0.7,-2.5 -0.7,-1.05 -1.75,-1.05 -1,0 -1.65,1.05 -0.7,1.05 -0.7,2.5 0,1.5 0.7,2.5 0.65,1.05 1.65,1.05 1.05,0 1.75,-1.05 m 18.5,-2.5 q 0,0.15 0,0.35 0.2,-2.95 2.25,-4.6 H 8.6 q 1.35,0.25 2.3,1.25 1.15,1.25 1.15,3 m -7.35,0 q 0,1.5 0.7,2.5 0.65,1.05 1.7,1.05 1,0 1.7,-1.05 0.7,-1 0.7,-2.5 0,-1.45 -0.7,-2.5 -0.7,-1.05 -1.7,-1.05 -1.05,0 -1.7,1.05 -0.7,1.05 -0.7,2.5 z"
             id="path78" />
          <path
             fill="#ffffff"
             stroke="none"
             d="m -9.25,-13.85 q -0.2,0 -0.4,0.05 -1.35,0.25 -2.3,1.25 -1.15,1.25 -1.15,3 0,0.15 0,0.35 0.1,1.5 1.15,2.65 1.2,1.3 2.95,1.3 1.7,0 2.85,-1.3 1.2,-1.25 1.2,-3 0,-1.75 -1.2,-3 -1.15,-1.3 -2.85,-1.3 -0.15,0 -0.25,0 m 3.5,4.3 q 0,1.5 -0.7,2.5 -0.7,1.05 -1.75,1.05 -1,0 -1.65,-1.05 -0.7,-1 -0.7,-2.5 0,-1.45 0.7,-2.5 0.65,-1.05 1.65,-1.05 1.05,0 1.75,1.05 0.7,1.05 0.7,2.5 M 8.6,-13.8 q -0.2,-0.05 -0.4,-0.05 -0.15,0 -0.3,0 -1.7,0 -2.8,1.3 -1.2,1.25 -1.2,3 0,1.75 1.2,3 1.1,1.3 2.8,1.3 1.8,0 3,-1.3 1.05,-1.15 1.15,-2.65 0,-0.2 0,-0.35 0,-1.75 -1.15,-3 -0.95,-1 -2.3,-1.25 m -3.2,6.75 q -0.7,-1 -0.7,-2.5 0,-1.45 0.7,-2.5 0.65,-1.05 1.7,-1.05 1,0 1.7,1.05 0.7,1.05 0.7,2.5 0,1.5 -0.7,2.5 Q 8.1,-6 7.1,-6 6.05,-6 5.4,-7.05 Z"
             id="path83" />
        </g>
      </g>
      <g
         id="g370">
        <g
           id="use369">
          <path
             fill="#ffffff"
             stroke="none"
             d="M 1.75,1.2 V -2 H -5.9 q -0.35,0 -0.65,0.25 -0.35,0.15 -0.4,0.5 -0.1,0.25 0,0.65 0.05,0.5 0.35,1.05 0.25,0.35 0.55,0.75 z"
             id="path75" />
          <path
             fill="#a8603f"
             stroke="none"
             d="M 4.9,-2 H 1.75 v 3.2 h -7.8 q 0.3,0.55 0.8,0.9 Q -3.3,4 -0.5,4 2.2,4 4.2,2.15 L 4.3,2.1 Q 5.05,1.4 5.55,0.45 5.85,-0.1 6,-0.6 6.05,-1 5.95,-1.25 5.85,-1.6 5.55,-1.75 5.25,-2 4.9,-2 Z"
             id="path76" />
        </g>
      </g>
      <g
         id="g371">
        <g
           id="use370">
          <path
             fill="#3c3e41"
             stroke="none"
             d="m 20.05,-17.65 1,-8.4 H 20.5 v -0.85 h -42.7 l 0.65,7.65 q 10.75,-0.2 15.9,-4.1 5.2,6.45 11.05,6.6 l 1.45,-3.1 q 6.75,2.5 13.2,2.2 z"
             id="path74" />
        </g>
      </g>
      <g
         id="g372">
        <g
           id="use371">
          <path
             fill="#71a2be"
             stroke="none"
             d="m 17.1,-26.95 q -0.8,-1.1 -2,-2.15 -5.55,-4.7 -15.6,-4.7 -10.05,0 -15.55,4.65 -0.4,0.25 -0.65,0.6 -0.85,0.7 -1.4,1.6 -0.6,0.8 -0.15,1.95 6.45,-3.7 17.75,-3.7 11.2,0 17.7,3.65 0.45,-1.1 -0.1,-1.9 z"
             id="path73" />
        </g>
      </g>
      <g
         id="g373">
        <g
           id="use372">
          <path
             fill="#3c3e41"
             stroke="none"
             d="m -16.6,-12.55 q 0.6,-0.8 0.5,-1.85 l -0.65,-5.65 h -4.95 l 0.75,6.25 q 0.1,1 0.95,1.7 0.8,0.6 1.8,0.45 h 0.05 q 1,-0.1 1.55,-0.9 z"
             id="path72" />
        </g>
      </g>
      <g
         id="g374">
        <g
           id="use373">
          <path
             fill="#3c3e41"
             stroke="none"
             d="m 14.85,-14.4 q -0.1,1.05 0.5,1.85 0.6,0.8 1.6,0.9 H 17 q 1,0.15 1.8,-0.45 0.85,-0.7 0.95,-1.7 l 0.75,-6.25 h -5 z"
             id="path71" />
        </g>
      </g>
      <g
         id="g375">
        <g
           id="use374">
          <path
             fill="#3c3e41"
             stroke="none"
             d="M -14.35,-18.35 -15,-15.95 -5.55,-15 -5,-17 Z"
             id="path68" />
        </g>
      </g>
      <g
         id="g376">
        <g
           id="use375">
          <path
             fill="#3c3e41"
             stroke="none"
             d="m 14,-15.8 -0.4,-2.4 -9.35,0.45 0.35,2.05 z"
             id="path67" />
        </g>
      </g>
      <g
         id="g377">
        <g
           id="use376">
          <path
             fill="#eea160"
             stroke="none"
             d="m 19.85,-7.8 q -0.4,0.7 -0.2,1.4 l 1,3.85 q 0.2,0.7 0.85,1.1 0.65,0.35 1.4,0.15 h 0.05 q 0.7,-0.2 1.1,-0.85 0.4,-0.7 0.2,-1.45 l -1,-3.8 q -0.2,-0.7 -0.9,-1.1 -0.7,-0.35 -1.35,-0.15 h -0.05 q -0.75,0.2 -1.1,0.85 z"
             id="path69" />
        </g>
      </g>
      <g
         id="g378">
        <g
           id="use377">
          <path
             fill="#eea160"
             stroke="none"
             d="m -20.8,-7.8 q -0.35,-0.65 -1.1,-0.85 h -0.05 q -0.7,-0.2 -1.4,0.15 -0.7,0.4 -0.9,1.1 l -0.95,3.8 q -0.2,0.75 0.2,1.45 0.4,0.65 1.05,0.85 h 0.05 q 0.75,0.2 1.4,-0.15 0.7,-0.4 0.9,-1.1 l 1,-3.85 q 0.2,-0.7 -0.2,-1.4 z"
             id="path70" />
        </g>
      </g>
    </g>
  </g>
</svg>
